<?xml version="1.0" encoding="utf-8"?>
<!-- Generator: Adobe Illustrator 16.0.1, SVG Export Plug-In . SVG Version: 6.00 Build 0)  -->
<!DOCTYPE svg PUBLIC "-//W3C//DTD SVG 1.1//EN" "http://www.w3.org/Graphics/SVG/1.1/DTD/svg11.dtd">
<svg version="1.1" id="Layer_1" xmlns="http://www.w3.org/2000/svg" xmlns:xlink="http://www.w3.org/1999/xlink" x="0px" y="0px"
	 width="3093.443px" height="2550.173px" viewBox="0 0 3093.443 2550.173" enable-background="new 0 0 3093.443 2550.173"
	 xml:space="preserve">
<g>
	<g display="none">
		<rect x="-404.001" y="-785.039" display="inline" fill="#67E9FF" width="4000" height="4000"/>
	</g>
	<g>
		<g>
			<path fill="#5E2323" d="M127.426,2428.461c59.604-8.318,119.209-10.308,178.813-11.33c29.802-0.563,59.604-0.674,89.409-0.527
				c29.802-0.042,59.604,0.339,89.407,0.612c59.604,0.488,119.209,0.612,178.813,0.535h178.816h715.261h715.259h357.631
				l89.408-0.032l44.703-0.383l44.703-0.667c29.803-0.317,59.605,0.127,89.408,1.599c29.803,1.617,59.605,4.148,89.406,10.193
				c2.957,0.598,4.869,3.481,4.268,6.44c-0.447,2.214-2.184,3.843-4.268,4.268c-29.801,6.042-59.604,8.574-89.406,10.19
				c-29.803,1.473-59.605,1.919-89.408,1.6l-44.703-0.664l-44.703-0.387l-89.408-0.029h-357.631h-715.259H842.685H663.869
				c-59.604-0.078-119.209,0.045-178.813,0.535c-29.802,0.271-59.604,0.654-89.407,0.613c-29.805,0.144-59.607,0.033-89.409-0.527
				c-59.604-1.023-119.209-3.016-178.813-11.331c-2.959-0.413-5.022-3.145-4.609-6.101
				C123.159,2430.621,125.095,2428.785,127.426,2428.461z"/>
		</g>
		<g>
			<g>
				<path fill="#FFFFFF" d="M2823.993,706.912c0-6.017-13.438-11.215-32.996-13.741c-6.828-0.882-12.166-6.22-13.049-13.048
					c-2.525-19.56-7.725-32.996-13.74-32.996c-6.018,0-11.215,13.436-13.742,32.996c-0.881,6.829-6.219,12.167-13.047,13.048
					c-19.561,2.526-32.996,7.724-32.996,13.741s13.436,11.215,32.994,13.741c6.83,0.882,12.168,6.22,13.049,13.049
					c2.527,19.56,7.725,32.996,13.742,32.996c6.016,0,11.215-13.436,13.74-32.996c0.883-6.829,6.221-12.167,13.049-13.049
					C2810.555,718.126,2823.993,712.929,2823.993,706.912z"/>
			</g>
			<g>
				<path fill="#FFFFFF" d="M161.05,1277.378c0-6.017-13.436-11.216-32.996-13.741c-6.829-0.882-12.167-6.22-13.048-13.048
					c-2.526-19.56-7.724-32.996-13.741-32.996c-6.017,0-11.215,13.437-13.741,32.995c-0.881,6.829-6.22,12.167-13.048,13.049
					c-19.56,2.525-32.996,7.725-32.996,13.741s13.436,11.215,32.996,13.741c6.828,0.882,12.167,6.22,13.048,13.048
					c2.526,19.56,7.725,32.996,13.741,32.996c6.017,0,11.215-13.437,13.741-32.996c0.882-6.828,6.22-12.166,13.048-13.048
					C147.614,1288.593,161.05,1283.395,161.05,1277.378z"/>
			</g>
			<g>
				<path fill="#FFFFFF" d="M3016.93,880.536c0-4.664-10.414-8.692-25.574-10.65c-5.291-0.683-9.428-4.82-10.111-10.113
					c-1.959-15.16-5.986-25.573-10.65-25.573s-8.693,10.414-10.65,25.573c-0.684,5.292-4.82,9.43-10.113,10.113
					c-15.16,1.958-25.572,5.987-25.572,10.65s10.412,8.692,25.572,10.65c5.293,0.683,9.43,4.82,10.113,10.113
					c1.957,15.16,5.986,25.573,10.65,25.573s8.691-10.414,10.65-25.573c0.684-5.292,4.82-9.43,10.111-10.113
					C3006.516,889.228,3016.93,885.199,3016.93,880.536z"/>
			</g>
			<g>
				<path fill="#FFFFFF" d="M1649.635,207.314c0-4.664-10.414-8.692-25.574-10.65c-5.291-0.684-9.428-4.821-10.111-10.113
					c-1.959-15.16-5.986-25.573-10.65-25.573s-8.693,10.414-10.65,25.573c-0.684,5.292-4.82,9.43-10.113,10.113
					c-15.159,1.958-25.573,5.986-25.573,10.65s10.414,8.692,25.573,10.65c5.293,0.683,9.43,4.82,10.113,10.113
					c1.957,15.16,5.986,25.573,10.65,25.573s8.691-10.414,10.65-25.573c0.684-5.292,4.82-9.43,10.111-10.113
					C1639.221,216.006,1649.635,211.978,1649.635,207.314z"/>
			</g>
			<g>
				<circle fill="#FFFFFF" cx="2954.672" cy="680.816" r="25.232"/>
			</g>
			<g>
				<circle fill="#FFFFFF" cx="1763.397" cy="316.837" r="25.232"/>
			</g>
			<g>
				<circle fill="#FFFFFF" cx="225.357" cy="1129.387" r="25.232"/>
			</g>
		</g>
		<g>
			<g>
				<g>
					<path fill="#FFFFFF" d="M1733.227,1523.871c3.098,28.893-17.643,56.16-46.314,60.848c-23.344,3.82-45.453-7.322-56.834-26.243
						c-2.273-3.771-7.684-3.021-8.781,1.218c-5.852,21.439-24.277,38.266-47.869,40.758c-30.111,3.201-58.096-19.451-61.298-49.562
						c-2.185-20.91,7.501-40.416,23.787-51.626c12.021-8.283,17.743-23.154,15.739-37.602l-9.528-68.739l114.565-15.883l9.238,66.64
						c2.117,15.275,12.688,28.341,27.49,32.646C1714.379,1482.438,1730.78,1500.598,1733.227,1523.871z"/>
					<path fill="#5E2323" d="M1567.783,1603.342c-29.111,0.003-55.098-22.707-58.232-52.178
						c-2.217-21.235,7.324-41.938,24.897-54.035c10.82-7.454,16.567-21.235,14.644-35.11l-9.888-71.309l119.703-16.592l9.594,69.204
						c2.021,14.598,12.09,26.575,25.645,30.516c22.828,6.657,39.18,26.191,41.66,49.758c3.238,30.215-18.51,58.782-48.471,63.682
						c-23.779,3.87-47.1-6.892-59.479-27.466c-0.518-0.861-1.406-1.294-2.266-1.162c-0.42,0.062-1.436,0.35-1.781,1.694
						c-6.393,23.401-26.055,40.145-50.108,42.686C1571.719,1603.239,1569.741,1603.342,1567.783,1603.342z M1545.054,1395.134
						l9.175,66.172c2.188,15.801-4.423,31.536-16.84,40.091c-16.011,11.022-24.703,29.885-22.681,49.226
						c3.047,28.655,29.775,50.278,58.447,47.251c21.914-2.314,39.829-17.568,45.645-38.862c0.762-2.944,3.08-5.061,6.049-5.49
						c2.969-0.457,5.846,0.954,7.451,3.62c11.275,18.74,32.535,28.572,54.195,25.02c27.299-4.46,47.104-30.485,44.154-58.013v-0.005
						c-2.256-21.47-17.152-39.263-37.953-45.329c-15.514-4.51-27.027-18.162-29.332-34.778l-8.881-64.072L1545.054,1395.134z"/>
				</g>
				<g opacity="0.3">
					<path fill="#6B184E" d="M1512.134,1550.881c-2.189-20.925,7.507-40.432,23.792-51.592
						c12.034-8.297,17.759-23.161,15.728-37.651l-9.534-68.72l42.667-5.911l9.412,67.946c2.029,14.49-3.694,29.354-15.701,37.594
						c-16.313,11.218-26.008,30.725-23.819,51.65c2.535,23.594,20.279,42.649,42.411,48.12c-6.963,4.331-15.006,7.209-23.675,8.14
						C1543.303,1603.611,1515.346,1581.021,1512.134,1550.881z"/>
					<path fill="#5E2323" d="M1567.856,1603.337c-29.141,0-55.161-22.725-58.3-52.18v-0.008
						c-2.222-21.255,7.324-41.945,24.907-53.999c10.83-7.468,16.572-21.27,14.624-35.153l-9.893-71.292l47.803-6.621l9.771,70.513
						c2.217,15.825-4.38,31.561-16.807,40.086c-16.025,11.022-24.727,29.893-22.705,49.245
						c2.368,22.041,18.623,40.479,40.454,45.872l5.963,1.475l-5.215,3.242c-7.437,4.631-16.006,7.575-24.766,8.516
						C1571.733,1603.237,1569.785,1603.337,1567.856,1603.337z M1514.712,1550.605c3.052,28.623,29.78,50.275,58.433,47.272
						c5.981-0.642,11.865-2.31,17.295-4.88c-20.859-7.588-35.962-26.399-38.34-48.525c-2.222-21.248,7.334-41.961,24.927-54.063
						c10.825-7.425,16.553-21.199,14.604-35.098l-9.058-65.384l-37.529,5.2l9.18,66.152c2.212,15.806-4.39,31.565-16.826,40.142
						c-16.021,10.979-24.707,29.822-22.686,49.185V1550.605z"/>
				</g>
				<g>
					<path fill="#5E2323" d="M1567.822,1613.601c-34.229,0.003-64.785-26.699-68.472-61.35
						c-2.607-24.993,8.613-49.344,29.282-63.574c7.646-5.271,11.694-15.184,10.298-25.252l-9.531-68.737
						c-0.469-3.377,0.425-6.8,2.48-9.52c2.056-2.717,5.107-4.507,8.486-4.976l114.566-15.881c7.041-0.97,13.51,3.938,14.492,10.964
						l9.238,66.639c1.469,10.593,8.672,19.258,18.35,22.07c26.846,7.832,46.068,30.798,48.994,58.518l0,0
						c3.809,35.537-21.773,69.139-57.018,74.9c-22.875,3.752-45.404-4.08-60.814-20.315c-10.518,20.047-30.225,33.696-53.394,36.146
						C1572.446,1613.479,1570.127,1613.601,1567.822,1613.601z M1556.621,1403.887l7.769,56.011
						c2.715,19.606-5.596,39.214-21.182,49.948c-12.915,8.892-19.927,24.106-18.296,39.712
						c2.456,23.104,23.999,40.586,47.158,38.115c17.686-1.87,32.139-14.18,36.831-31.364c1.754-6.777,7.451-11.922,14.473-12.942
						c7.047-1.04,14,2.305,17.715,8.481c9.098,15.13,26.289,23.042,43.75,20.188c22.018-3.599,37.988-24.59,35.611-46.795
						c0-0.01,0-0.017-0.006-0.026c-1.816-17.31-13.838-31.655-30.619-36.553c-19.381-5.635-33.76-22.601-36.621-43.218
						l-7.477-53.909L1556.621,1403.887z M1633.741,1562.917c-0.02,0.068-0.039,0.142-0.059,0.21
						C1633.702,1563.059,1633.721,1562.988,1633.741,1562.917z"/>
				</g>
				<g>
					<path fill="#D46051" d="M1674.213,1271.311l9.104,65.679c2.732,19.702-11.025,37.889-30.729,40.62l-106.864,14.814
						c-19.703,2.731-37.889-11.026-40.62-30.729l-9.105-65.679c-3.976-28.682-18.309-54.657-39.488-74.403
						c-107.623-100.333-156.683-291.784-56.285-407.69c59.349-68.516,159.253-82.365,235.003-32.579
						c128.143,84.224,133.012,281.8,56.742,407.627C1676.961,1213.733,1670.237,1242.629,1674.213,1271.311z"/>
					<path fill="#5E2323" d="M1540.752,1395.361c-18.955,0-35.537-14.014-38.218-33.311l-9.102-65.677
						c-3.779-27.251-17.52-53.127-38.687-72.866c-108.003-100.684-157.759-294.355-56.479-411.281
						c60.684-70.054,160.947-83.95,238.388-33.047c129.264,84.965,134.072,284.868,57.535,411.135
						c-15.006,24.756-21.191,53.394-17.408,80.64l9.107,65.679c2.92,21.087-11.861,40.62-32.945,43.543l-106.865,14.814
						C1544.292,1395.239,1542.51,1395.361,1540.752,1395.361z M1535.84,753.84c-49.658,0-98.491,21.187-133.657,61.78
						c-99.351,114.702-50.176,305.024,56.099,404.099c22.036,20.547,36.343,47.518,40.288,75.942l9.102,65.677
						c2.529,18.254,19.399,31.062,37.695,28.521l106.865-14.814c18.258-2.532,31.051-19.443,28.521-37.698l-9.107-65.679
						c-3.939-28.423,2.49-58.269,18.111-84.038c75.313-124.248,70.854-320.771-55.953-404.118
						C1603.432,763.547,1569.448,753.84,1535.84,753.84z"/>
				</g>
				<g opacity="0.3">
					<path fill="#6B184E" d="M1505.128,1361.72l-9.129-65.736c-4-28.665-18.315-54.626-39.515-74.362
						c-107.628-100.324-156.676-291.773-56.243-407.708c41.364-47.767,102.454-68.942,161.289-60.492
						c-24.135,8.059-46.891,21.361-66.541,39.887c-111.619,105.14-82.212,300.545,14.699,411.307
						c19.067,21.771,30.667,49.058,31.739,78.014l2.381,66.242c0.684,19.908,17.411,35.469,37.288,34.7l38.464-1.38l-73.856,10.255
						C1526.021,1395.167,1507.849,1381.404,1505.128,1361.72z"/>
					<path fill="#5E2323" d="M1540.752,1395.378c-18.95,0.003-35.527-14.011-38.193-33.303v0.002l-9.126-65.737
						c-3.809-27.263-17.559-53.127-38.716-72.822c-108.003-100.676-157.744-294.353-56.436-411.301
						c40.923-47.259,102.109-70.19,163.613-61.36l10.84,1.558l-10.386,3.467c-24.536,8.191-46.602,21.416-65.581,39.312
						c-110.439,104.031-80.801,298.369,14.868,407.718c19.819,22.627,31.318,50.905,32.379,79.624l2.382,66.245
						c0.308,8.942,4.087,17.222,10.635,23.311c6.548,6.081,15.132,9.248,23.965,8.892l38.471-1.38l0.449,5.156l-73.857,10.254
						C1544.277,1395.259,1542.505,1395.378,1540.752,1395.378z M1535.884,754.177c-50.908,0-99.541,22.005-133.687,61.434
						c-99.38,114.722-50.22,305.051,56.055,404.116c22.026,20.502,36.343,47.458,40.317,75.898l9.126,65.742
						c2.52,18.237,19.399,31.025,37.651,28.513l29.102-4.04c-7.793-1.06-15.059-4.482-20.942-9.954
						c-7.568-7.036-11.934-16.597-12.285-26.926l-2.383-66.238c-1.021-27.529-12.061-54.663-31.099-76.398
						c-97.231-111.128-127.109-308.853-14.526-414.903c16.821-15.859,36.006-28.159,57.139-36.65
						C1545.513,754.372,1540.688,754.177,1535.884,754.177z"/>
				</g>
				<g opacity="0.55">
					<path fill="#FFFFFF" d="M1634.969,1380.036c14.125-6.424,22.98-21.553,20.758-37.707l-9.098-65.651
						c-3.973-28.722,2.715-57.621,17.754-82.39c50.791-83.767,65.559-199.401,31.986-292.165
						c-24.6-5.099-50.859-32.794-34.984-65.016c-14.672-19.348-32.51-36.449-53.73-50.407
						c-36.421-23.991-78.511-33.232-118.952-28.669c48.359-13.359,101.721-6.141,146.567,23.302
						c128.08,84.26,132.939,281.809,56.701,407.646c-15.041,24.769-21.729,53.668-17.729,82.332l9.07,65.708
						c2.723,19.685-11.041,37.857-30.725,40.578L1634.969,1380.036z"/>
					<path fill="#5E2323" d="M1617.696,1385.044l16.201-7.366c13.34-6.066,21.264-20.456,19.262-34.995l-9.096-65.646
						c-3.941-28.503,2.484-58.367,18.105-84.092c51.742-85.337,64.346-198.45,32.246-288.602
						c-15.211-3.638-29.225-14.714-35.982-28.557c-4.189-8.577-7.51-22.098-0.063-38.362c-14.752-19.17-32.285-35.5-52.139-48.557
						c-34.678-22.847-76.324-32.881-117.242-28.26l-0.976-5.073c50.405-13.923,104.604-5.31,148.677,23.633
						c129.189,84.988,133.988,284.895,57.5,411.155c-15.016,24.724-21.188,53.359-17.379,80.63l9.072,65.713
						c2.91,21.071-11.865,40.586-32.939,43.498L1617.696,1385.044z M1521.616,754.797c30.947,2.241,61.152,12.407,87.466,29.741
						c20.771,13.662,39.066,30.823,54.369,51.003l0.967,1.274l-0.707,1.436c-7.408,15.031-4.43,27.471-0.625,35.259
						c6.293,12.888,19.564,23.122,33.813,26.076l1.416,0.293l0.494,1.362c33.217,91.785,20.57,207.342-32.207,294.39
						c-15.006,24.712-21.188,53.367-17.402,80.691l9.096,65.649c1.758,12.81-3.145,25.518-12.406,33.936l6.342-0.877
						c18.248-2.524,31.035-19.416,28.516-37.658l-9.072-65.708c-3.969-28.447,2.457-58.291,18.082-84.031
						c75.268-124.235,70.814-320.767-55.914-404.136C1600.303,761.472,1560.724,751.567,1521.616,754.797z"/>
				</g>
				<g>
					<path fill="#5E2323" d="M1540.742,1405.62c-23.989,0-44.98-17.734-48.369-42.158l-9.102-65.679
						c-3.457-24.922-16.074-48.636-35.522-66.771c-111.421-103.874-162.334-304.17-57.236-425.503
						c63.046-72.795,171.279-87.805,251.776-34.904c134.137,88.166,139.635,294.758,60.674,425.029
						c-13.789,22.744-19.477,48.991-16.02,73.91l0,0l9.105,65.68c3.697,26.689-15.01,51.413-41.699,55.114l-106.865,14.814
						C1545.22,1405.469,1542.969,1405.62,1540.742,1405.62z M1535.869,764.128c-46.787,0-92.803,19.963-125.933,58.208
						c-95.532,110.296-47.51,293.994,55.342,389.878c23.755,22.148,39.185,51.284,43.452,82.039l9.102,65.676
						c1.758,12.651,13.491,21.536,26.128,19.766l106.865-14.814c12.652-1.755,21.52-13.474,19.766-26.128l-9.105-65.676
						c-4.268-30.75,2.656-62.986,19.496-90.767c72.887-120.244,69.127-310.081-52.813-390.225
						C1599.555,773.273,1567.534,764.128,1535.869,764.128z"/>
				</g>
				<g opacity="0.2">
					<path fill="#FFFFFF" d="M1617.752,1103.275c-22.8,3.125-24.336-31.509-30.119-73.7c-5.783-42.19-13.623-75.961,9.178-79.086
						c22.798-3.125,45.97,28.544,51.753,70.735C1654.346,1063.415,1640.551,1100.15,1617.752,1103.275z"/>
					<path fill="#5E2323" d="M1615.01,1106.062c-4.039,0-7.613-1.174-10.66-3.506c-10.996-8.42-13.857-30.671-17.475-58.845
						c-0.576-4.473-1.167-9.083-1.812-13.784c-0.645-4.695-1.313-9.285-1.958-13.738c-4.102-28.12-7.334-50.332,0.991-61.401
						c2.881-3.825,7.041-6.138,12.363-6.867c11.982-1.646,24.335,5.246,34.703,19.411c10.023,13.704,17.113,32.718,19.971,53.54
						c5.967,43.54-8.854,81.658-33.027,84.974l0,0C1617.045,1105.988,1616.01,1106.062,1615.01,1106.062z M1599.946,952.866
						c-0.932,0-1.859,0.063-2.783,0.19c-3.959,0.542-6.879,2.126-8.92,4.846c-7.031,9.346-3.779,31.678-0.01,57.539
						c0.649,4.468,1.323,9.072,1.968,13.782c0.645,4.717,1.24,9.338,1.816,13.825c3.33,25.908,6.201,48.286,15.484,55.391
						c2.705,2.068,5.941,2.815,9.902,2.268c21.342-2.925,34.174-38.425,28.594-79.133c-2.74-19.985-9.492-38.161-19.02-51.182
						C1618.637,958.991,1609.141,952.866,1599.946,952.866z"/>
				</g>
			</g>
			<g>
				<g>
					<path fill="#E36836" d="M1412.236,664.068l-115.194,73.643l13.056,18.95c33.653,48.992,17.13,116.401-35.404,144.231
						l-3.903,2.071c-44.357,23.51-99.215,10.328-128.024-30.762l-79.096-112.688c-12.909-17.004-20.471-36.342-22.879-56.013
						c-7.092-57.005,31.536-109.849,87.087-124.395l119.523-31.313c20.688-5.405,33.426-26.149,28.844-46.979l-40.111-118.247
						c-7.604-22.313,21.211-38.709,36.539-20.754l155.702,182.217C1461.224,580.442,1453.574,637.625,1412.236,664.068z"/>
				</g>
				<g opacity="0.3">
					<path fill="#5E2323" d="M1412.267,664.075l-115.194,73.643l13.056,18.951c33.654,48.992,17.13,116.401-35.404,144.231
						l-3.904,2.071c-44.357,23.51-99.215,10.328-128.024-30.762l-4.921-6.997c27.579,13.119,60.643,13.257,89.309-1.921l3.903-2.071
						c52.535-27.83,69.058-95.239,35.404-144.231l0,0c-7.137-10.358-4.266-24.57,6.333-31.345l95.805-61.248
						c41.339-26.443,48.988-83.626,16.14-120.04l-128.364-150.232c5.75-0.065,11.625,2.206,16.298,7.695l155.702,182.217
						C1461.255,580.449,1453.605,637.632,1412.267,664.075z"/>
				</g>
				<g opacity="0.55">
					<path fill="#FFFFFF" d="M1185.466,885.68c10.484,14.932,24.325,26.151,39.972,33.236c-30.781-0.603-60.655-15.501-79.428-42.29
						l-79.096-112.688c-12.909-17.004-20.47-36.342-22.878-56.013c-7.093-57.006,31.535-109.849,87.087-124.395l119.524-31.313
						c20.688-5.405,33.425-26.15,28.843-46.979l-40.111-118.247c-7.604-22.313,21.211-38.71,36.539-20.755l7.273,8.526
						c-4.887,5.208-7.233,12.844-4.356,21.283l40.111,118.246c4.583,20.83-8.155,41.574-28.844,46.979l-119.524,31.313
						c-55.551,14.547-94.179,67.39-87.087,124.395c2.408,19.671,9.97,39.009,22.879,56.013L1185.466,885.68z"/>
				</g>
				<g>
					<path fill="#5E2323" d="M1224.36,930.578c-36.65,0.003-72.485-17.407-94.746-49.155l-78.926-112.444
						c-14.106-18.669-23.042-40.63-25.845-63.528c-7.959-64.016,34.585-125.026,98.965-141.885l119.521-31.313
						c12.153-3.176,19.658-15.036,17.383-27.227l-39.795-117.3c-5.869-17.229,1.089-35.573,16.924-44.59
						c15.845-9.023,35.195-5.64,47.051,8.242l155.693,182.215c18.555,20.556,27.207,48.51,23.457,76.369
						c-3.75,27.84-19.478,52.493-43.149,67.637c0,0-0.004,0-0.004,0.003l-101.187,64.688l3.623,5.259
						c18.652,27.15,24.839,61.05,16.982,93.02c-7.847,31.956-29.023,59.119-58.096,74.519l-3.892,2.066
						C1261.196,926.23,1242.676,930.578,1224.36,930.578z M1256.602,370.202c-0.908,0-1.865,0.286-2.861,0.854
						c-2.534,1.44-3.34,3.569-2.402,6.328l40.122,118.267c0.186,0.562,0.347,1.131,0.474,1.709
						c6.465,29.375-11.309,58.357-40.469,65.975l-119.517,31.311c-48.867,12.795-81.201,58.74-75.215,106.873
						c2.129,17.395,8.95,34.079,19.731,48.281c0.122,0.161,0.239,0.322,0.356,0.485l79.097,112.688
						c24.102,34.377,70.254,45.469,107.349,25.796l3.896-2.066c20.996-11.123,36.279-30.73,41.943-53.798
						c5.674-23.084,1.206-47.557-12.251-67.148l-13.042-18.933c-2.471-3.589-3.379-8.025-2.52-12.295
						c0.864-4.27,3.423-8.008,7.095-10.354l115.19-73.641c15.703-10.043,26.138-26.394,28.623-44.858
						c2.49-18.483-3.252-37.031-15.757-50.886l-155.981-182.544C1259.302,370.884,1258.008,370.202,1256.602,370.202z
						 M1412.236,664.067h0.049H1412.236z"/>
				</g>
				<g>
					<path fill="#5E2323" d="M1305.693,751.247l-86.14,35.994l68.838-63.064c6.641-6.084,16.956-5.632,23.04,1.008
						s5.632,16.956-1.008,23.04C1309.008,749.521,1307.363,750.541,1305.693,751.247z"/>
				</g>
				<g>
					<path fill="#5E2323" d="M1067.842,777.476c-3.652,0-7.285-1.551-9.829-4.563c-1.553-1.841-3.042-3.664-4.458-5.474
						c-4.375-5.588-3.394-13.664,2.192-18.042c5.601-4.377,13.672-3.389,18.042,2.192c1.23,1.57,2.524,3.149,3.872,4.746
						c4.575,5.425,3.887,13.533-1.538,18.11C1073.711,776.481,1070.771,777.476,1067.842,777.476z"/>
				</g>
				<g opacity="0.2">
					<path fill="#FFFFFF" d="M1216.215,628.107c12.061,12.758-8.744,29.087-32.351,51.407
						c-23.607,22.319-41.077,42.176-53.139,29.419s-2.702-41.192,20.905-63.512C1175.238,623.102,1204.153,615.351,1216.215,628.107
						z"/>
				</g>
			</g>
			<g>
				<g>
					<path fill="#FFFFFF" d="M1687.036,581.31c26.49-11.938,58.859-0.716,72.24,25.071c10.898,20.994,7.193,45.473-7.246,62.178
						c-2.875,3.336-0.479,8.243,3.893,7.968c22.195-1.115,43.922,11.157,53.635,32.801c12.414,27.618-0.398,61.265-28.018,73.681
						c-19.189,8.586-40.742,5.454-56.465-6.532c-11.613-8.845-27.527-9.653-40.633-3.252l-62.357,30.456l-50.759-103.928
						l60.453-29.525c13.855-6.768,22.982-20.879,22.465-36.287C1653.526,612.12,1665.68,590.881,1687.036,581.31z"/>
				</g>
				<g opacity="0.3">
					<path fill="#5E2323" d="M1781.532,783.007c-19.205,8.595-40.76,5.454-56.436-6.547c-11.631-8.854-27.539-9.666-40.676-3.226
						l-62.338,30.456l-18.9-38.707l61.641-30.097c13.139-6.44,29.045-5.628,40.613,3.217c15.738,12.01,37.295,15.151,56.498,6.557
						c21.633-9.754,34.219-32.549,32.527-55.284c6.283,5.269,11.521,12.017,15.105,19.965
						C1821.938,736.972,1809.172,770.573,1781.532,783.007z"/>
				</g>
				<g>
					<path fill="#5E2323" d="M1622.084,819.743c-1.762,0-3.525-0.29-5.219-0.871c-4.033-1.387-7.344-4.314-9.215-8.143
						l-50.756-103.928c-3.896-7.973-0.586-17.592,7.383-21.484l60.45-29.524c8.471-4.138,13.76-12.505,13.461-21.315
						c-0.961-29.266,15.631-55.887,42.275-67.828c34.117-15.344,75.85-0.849,93.072,32.332c10.488,20.2,10.746,43.442,1.533,63.27
						c21.557,4.958,39.766,19.6,49.145,40.5c7.76,17.261,8.248,36.736,1.363,54.829c-6.881,18.081-20.176,32.314-37.447,40.078
						c-24.023,10.74-51.904,7.52-72.797-8.408c-6.432-4.897-15.781-5.522-23.838-1.594l-62.359,30.456
						C1626.918,819.196,1624.506,819.743,1622.084,819.743z M1592.813,707.136l36.655,75.059l47.926-23.405
						c18.871-9.214,41.406-7.288,57.412,4.904c11.543,8.802,26.934,10.576,40.18,4.651c9.42-4.236,16.734-12.119,20.563-22.188
						c3.828-10.063,3.598-20.804-0.645-30.242c-6.729-15.012-21.719-24.182-38.174-23.345c-8.301,0.54-16.109-3.984-19.84-11.499
						c-3.744-7.534-2.578-16.564,2.979-23.003c10.684-12.363,12.701-29.741,5.152-44.284c-9.502-18.315-32.568-26.312-51.383-17.83
						c-0.01,0.005-0.02,0.01-0.029,0.013c-14.691,6.584-23.842,21.281-23.311,37.443c0.723,21.44-11.631,41.563-31.469,51.25
						L1592.813,707.136z M1755.229,660.479c-0.107,0.002-0.215,0.007-0.316,0.015
						C1755.014,660.488,1755.122,660.483,1755.229,660.479z M1687.036,581.308h0.049H1687.036z"/>
				</g>
				<g>
					<path fill="#E36836" d="M1465.397,716.018l59.58-29.099c17.873-8.729,39.438-1.317,48.168,16.556l47.346,96.942
						c8.73,17.873,1.316,39.438-16.557,48.167l-59.58,29.1c-26.019,12.708-46.242,34.415-58.412,60.689
						c-61.843,133.51-228.507,239.734-369.909,180.408c-83.587-35.069-127.851-125.699-104.12-213.183
						c40.146-147.995,226.388-214.131,369.706-180.824C1409.825,731.33,1439.377,728.726,1465.397,716.018z"/>
				</g>
				<g opacity="0.3">
					<path fill="#5E2323" d="M1603.952,848.555l-59.628,29.14c-25.995,12.725-46.21,34.411-58.364,60.702
						c-61.833,133.512-228.5,239.723-369.939,180.374c-58.27-24.438-97.411-75.9-107.697-134.442
						c15.172,20.428,34.897,37.911,58.621,50.817c134.663,73.34,311.204-15.438,386.292-142.014
						c14.753-24.898,37.072-44.416,64.255-54.449l62.211-22.885c18.705-6.847,28.285-27.587,21.367-46.238l-13.287-36.124
						l32.738,66.994C1629.231,818.287,1621.809,839.841,1603.952,848.555z"/>
				</g>
				<g opacity="0.55">
					<path fill="#FFFFFF" d="M1584.742,725.575c-10.502-11.423-27.636-15.127-42.295-7.986l-59.556,29.084
						c-26.059,12.716-55.604,15.357-83.824,8.776c-95.415-22.188-209.901-0.223-287.604,60.559
						c2.813,24.964-15.332,58.542-50.894,53.487c-13.819,19.966-24.517,42.24-31.175,66.753
						c-11.46,42.08-7.139,84.956,9.787,121.966c-27.75-41.798-37.503-94.755-23.485-146.538
						c40.2-147.948,226.418-214.065,369.736-180.79c28.22,6.582,57.766,3.941,83.76-8.784l59.619-29.076
						c17.859-8.713,39.414-1.292,48.126,16.566L1584.742,725.575z"/>
				</g>
				<g>
					<path fill="#5E2323" d="M1199.917,1151.516c-30.361,0-60.737-5.603-90.098-17.922
						c-90.283-37.881-139.043-137.705-113.408-232.203c42.505-156.682,239.058-227.06,388.848-192.263
						c25.186,5.859,51.143,3.174,73.086-7.544l0,0l59.58-29.099c25.796-12.617,57.051-1.865,69.653,23.938l47.348,96.943
						c12.604,25.806,1.861,57.051-23.939,69.651l-59.581,29.099c-21.943,10.718-40.015,29.544-50.889,53.008
						C1448.555,1057.31,1324.39,1151.514,1199.917,1151.516z M1305.566,732.368c-119.771,0-246.885,62.188-278.149,177.437
						c-21.782,80.31,18.101,161.97,94.834,194.165c132.861,55.737,290.63-46.089,349.116-172.349
						c13.965-30.146,37.383-54.426,65.938-68.372l59.58-29.099c9.887-4.829,13.999-16.799,9.174-26.684l-47.348-96.941
						c-4.834-9.888-16.816-13.986-26.685-9.172l-59.58,29.099c-28.56,13.95-62.104,17.485-94.463,9.971
						C1354.771,735.026,1330.317,732.368,1305.566,732.368z"/>
				</g>
				<g opacity="0.2">
					<path fill="#FFFFFF" d="M1323.289,821.984c10.067,20.694-22.368,32.936-60.662,51.566s-67.946,36.593-78.013,15.899
						c-10.068-20.694,12.814-52.573,51.108-71.203C1274.016,799.617,1313.221,801.291,1323.289,821.984z"/>
				</g>
			</g>
			<g>
				<g>
					<path fill="#E36836" d="M1978.297,924.386l-132.992,31.72l6.107,22.188c15.693,57.328-22.055,115.569-80.814,124.6
						l-4.367,0.674c-49.619,7.635-97.104-22.834-110.816-71.106l-37.695-132.416c-6.607-20.301-7.396-41.05-3.211-60.42
						c12.027-56.172,65.867-93.396,123.115-88.888l123.178,9.683c21.316,1.69,40.16-13.72,42.674-34.898l0.953-124.861
						c0.148-23.573,32.75-29.595,41.33-7.602l87.211,223.25C2052.036,861.49,2026.028,912.988,1978.297,924.386z"/>
				</g>
				<g opacity="0.3">
					<path fill="#5E2323" d="M1978.323,924.403l-132.99,31.72l6.105,22.188c15.695,57.328-22.053,115.569-80.813,124.6l-4.367,0.674
						c-49.619,7.636-97.104-22.834-110.818-71.106l-2.35-8.225c21.74,21.45,52.924,32.439,84.986,27.52l4.367-0.674
						c58.76-9.031,96.508-67.272,80.814-124.6l0,0c-3.338-12.128,4.041-24.608,16.277-27.526l110.607-26.381
						c47.73-11.398,73.738-62.896,54.672-108.078l-71.896-184.06c5.453,1.827,10.256,5.901,12.867,12.622l87.211,223.249
						C2052.063,861.507,2026.055,913.005,1978.323,924.403z"/>
				</g>
				<g opacity="0.55">
					<path fill="#FFFFFF" d="M1693.129,1062.099c4.998,17.547,14.387,32.69,26.838,44.521
						c-28.875-10.68-52.197-34.563-61.131-66.032l-37.693-132.416c-6.607-20.301-7.398-41.05-3.211-60.42
						c12.025-56.172,65.867-93.396,123.113-88.888l123.178,9.683c21.316,1.69,40.16-13.72,42.676-34.898l0.953-124.861
						c0.148-23.573,32.748-29.595,41.328-7.602l4.07,10.442c-6.326,3.313-11.051,9.755-11.105,18.671l-0.955,124.86
						c-2.514,21.179-21.357,36.588-42.674,34.898l-123.178-9.683c-57.246-4.507-111.088,32.716-123.113,88.888
						c-4.186,19.371-3.396,40.119,3.211,60.42L1693.129,1062.099z"/>
				</g>
				<g>
					<path fill="#5E2323" d="M1751.094,1120.791c-50.855,0.004-96.875-33.743-111.133-83.94l-37.613-132.129
						c-7.187-22.269-8.413-45.945-3.539-68.494c13.5-63.078,73.652-106.748,140.072-101.506l123.18,9.682
						c12.572,1.006,23.5-7.746,25.361-20.007l0.941-123.857c0.113-18.203,12.711-33.247,30.631-36.563
						c17.939-3.288,35.098,6.238,41.729,23.245l87.207,223.242c10.775,25.51,9.766,54.756-2.93,79.836
						c-12.686,25.066-35.641,43.184-62.975,49.712c0,0,0,0-0.004,0l-116.816,27.861l1.693,6.16
						c8.697,31.77,3.404,65.821-14.512,93.438c-17.91,27.605-46.836,46.304-79.35,51.299l-4.355,0.674
						C1762.784,1120.352,1756.905,1120.791,1751.094,1120.791z M1728.116,766.428c-47.018,0-88.301,31.733-97.896,76.558
						c-3.705,17.132-2.744,35.132,2.773,52.088c0.064,0.19,0.123,0.38,0.176,0.571l37.695,132.419
						c11.475,40.386,51.393,65.991,92.926,59.627l4.355-0.674c23.48-3.608,44.359-17.104,57.289-37.031
						c12.939-19.941,16.758-44.526,10.484-67.451l-6.1-22.168c-1.156-4.2-0.557-8.689,1.66-12.439
						c2.217-3.747,5.865-6.436,10.104-7.446l132.982-31.719c18.131-4.329,33.355-16.348,41.768-32.969
						c8.424-16.641,9.092-36.045,1.836-53.239l-87.373-223.65c-1.068-2.749-3.086-3.853-5.957-3.332
						c-2.865,0.529-4.326,2.275-4.346,5.19l-0.951,124.88c-0.006,0.594-0.045,1.185-0.113,1.772
						c-3.545,29.866-29.838,51.436-59.896,49.019l-123.17-9.68C1733.598,766.533,1730.85,766.428,1728.116,766.428z
						 M1978.295,924.387h0.049H1978.295z"/>
				</g>
				<g>
					<path fill="#5E2323" d="M1849.03,971.732l-93.184,5.703l85.732-36.956c8.271-3.564,17.867,0.249,21.432,8.521
						c3.564,8.269-0.25,17.864-8.521,21.431C1852.729,971.19,1850.842,971.613,1849.03,971.732z"/>
				</g>
				<g>
					<path fill="#5E2323" d="M1619.985,919.094c-5.16,0-10.023-3.125-11.992-8.225c-0.869-2.253-1.68-4.468-2.426-6.648
						c-2.311-6.711,1.264-14.023,7.973-16.33c6.719-2.305,14.029,1.265,16.334,7.976c0.648,1.883,1.342,3.799,2.094,5.745
						c2.559,6.621-0.736,14.063-7.357,16.618C1623.086,918.815,1621.524,919.094,1619.985,919.094z"/>
				</g>
				<g opacity="0.2">
					<path fill="#FFFFFF" d="M1804.963,826.035c7.201,16.011-17.813,24.601-47.441,37.928
						c-29.627,13.327-52.65,26.344-59.854,10.333c-7.201-16.011,10.979-39.794,40.607-53.122S1797.762,810.024,1804.963,826.035z"/>
				</g>
			</g>
			<g>
				<g>
					<path fill="#FFFFFF" d="M579.617,583.718c-18.822-22.139-17.024-56.35,4.036-76.363c17.145-16.295,41.69-19.53,61.747-10.295
						c4.003,1.837,8.052-1.828,6.575-5.95c-7.231-21.014-1.471-45.292,16.626-60.631c23.087-19.593,58.968-16.621,78.562,6.466
						c13.575,16.054,16.548,37.629,9.396,56.061c-5.274,13.612-1.634,29.125,8.153,39.939l46.566,51.454l-85.757,77.61
						l-45.143-49.882c-10.348-11.434-26.438-16.285-41.098-11.512C618.517,607.358,594.74,601.578,579.617,583.718z"/>
					<path fill="#5E2323" d="M725.337,665.669l-46.885-51.805c-9.878-10.92-24.922-15.153-38.374-10.786
						c-22.617,7.352-47.119,0.405-62.432-17.681l0,0c-19.688-23.152-17.793-59.004,4.219-79.919
						c17.451-16.585,42.808-20.809,64.619-10.771c0.913,0.412,1.86,0.305,2.529-0.32c0.313-0.285,0.991-1.094,0.518-2.4
						c-7.891-22.937-1.06-47.844,17.393-63.486c24.097-20.457,61.743-17.347,82.217,6.768c13.784,16.304,17.554,38.784,9.834,58.674
						c-4.746,12.251-1.743,26.878,7.656,37.264l48.306,53.376L725.337,665.669z M650.825,596.198
						c11.646,0,23.174,5.02,31.475,14.189l43.398,47.961l81.914-74.133l-44.824-49.533c-10.698-11.824-14.097-28.55-8.647-42.612
						c7.031-18.123,3.599-38.602-8.955-53.452c-18.643-21.968-52.944-24.803-74.912-6.165c-16.812,14.25-23.032,36.943-15.85,57.815
						c1.025,2.858,0.303,5.913-1.904,7.937c-2.231,2.048-5.366,2.513-8.198,1.211c-19.878-9.155-42.988-5.293-58.882,9.817
						c-20.054,19.055-21.777,51.716-3.848,72.805l0.005,0.005c13.955,16.475,36.299,22.793,56.88,16.106
						C642.515,596.836,646.68,596.198,650.825,596.198z"/>
				</g>
				<g opacity="0.3">
					<path fill="#5E2323" d="M747.164,436.953c13.587,16.064,16.552,37.645,9.373,56.035c-5.277,13.632-1.643,29.14,8.191,39.974
						l46.56,51.436l-31.94,28.9l-46.022-50.865c-9.834-10.834-13.468-26.343-8.182-39.91c7.17-18.454,4.205-40.035-9.382-56.099
						c-15.375-18.076-40.767-23.839-62.139-15.905c3.318-7.5,8.346-14.405,14.987-20.053
						C691.723,410.911,727.546,413.849,747.164,436.953z"/>
				</g>
				<g>
					<path fill="#5E2323" d="M725.518,678.074c-0.264,0-0.532-0.008-0.801-0.02c-4.253-0.212-8.252-2.106-11.108-5.266
						l-45.142-49.883c-6.328-6.987-15.83-9.746-24.214-7.017c-27.871,9.05-58.027,0.488-76.895-21.79
						c-24.214-28.506-21.87-72.637,5.229-98.389c16.494-15.676,38.745-22.388,60.356-19.03
						c-1.216-22.085,7.793-43.643,25.269-58.455c29.658-25.171,76.011-21.354,101.196,8.325
						c16.992,20.093,21.631,47.773,12.124,72.269c-2.92,7.536-0.923,16.704,5.088,23.345l46.563,51.457
						c5.957,6.577,5.449,16.736-1.127,22.69l-85.757,77.61C733.335,676.599,729.492,678.074,725.518,678.074z M650.815,582.727
						c15.386,0,30.576,6.582,41.47,18.621l34.365,37.971l61.934-56.052l-35.781-39.543c-14.092-15.563-18.496-37.751-11.226-56.521
						c5.249-13.525,2.69-28.804-6.68-39.883c-13.916-16.392-39.521-18.504-55.903-4.593c-12.554,10.638-17.192,27.576-11.831,43.157
						c2.788,7.764,0.645,16.574-5.532,22.246c-6.201,5.693-15.205,7.072-22.925,3.532c-14.854-6.833-32.109-3.957-43.984,7.337
						c-14.961,14.213-16.245,38.579-2.866,54.313c0.01,0.008,0.015,0.018,0.024,0.024c10.4,12.285,27.051,16.987,42.437,12
						C639.712,583.579,645.278,582.727,650.815,582.727z M636.748,496.232c0.034,0.103,0.068,0.205,0.107,0.306
						C636.816,496.436,636.782,496.333,636.748,496.232z"/>
				</g>
				<g>
					<path fill="#E36836" d="M770.548,759.261l-44.493-49.163c-13.347-14.748-12.211-37.523,2.537-50.87l79.993-72.393
						c14.748-13.347,37.523-12.211,50.87,2.537l44.492,49.163c19.43,21.47,45.897,34.874,74.517,39.273
						c145.429,22.359,293.736,152.993,275.986,305.305c-10.492,90.036-85.275,157.715-175.909,159.197
						c-153.322,2.506-268.551-158.063-276.329-304.995C800.682,808.4,789.978,780.73,770.548,759.261z"/>
				</g>
				<g opacity="0.3">
					<path fill="#5E2323" d="M859.422,589.364l44.544,49.198c19.439,21.442,45.884,34.844,74.516,39.225
						c145.428,22.348,293.724,152.988,275.961,305.343c-7.306,62.764-45.882,114.65-99.269,140.78
						c15.414-20.246,26.735-44.048,32.55-70.421c33.084-149.728-101.204-294.692-243.648-331.699
						c-28.014-7.264-52.96-23.289-70.143-46.619l-39.253-53.414c-11.769-16.071-34.354-19.519-50.351-7.694l-31.018,22.79
						l55.276-50.045C823.327,573.478,846.094,574.626,859.422,589.364z"/>
				</g>
				<g opacity="0.55">
					<path fill="#FFFFFF" d="M748.761,647.305c-8.06,13.259-6.863,30.748,4.066,42.85l44.471,49.144
						c19.449,21.506,30.187,49.157,31.696,78.095c5.167,97.825,58.043,201.717,138.003,259.497
						c23.202-9.631,60.497-1.519,65.51,34.049c23.018,7.734,47.386,11.83,72.783,11.423c43.607-0.669,83.599-16.721,114.458-43.253
						c-32.454,38.261-80.624,62.328-134.263,63.232c-153.293,2.443-268.497-158.11-276.306-305.032
						c-1.509-28.938-12.247-56.59-31.687-78.031l-44.48-49.207c-13.328-14.738-12.181-37.506,2.558-50.834L748.761,647.305z"/>
				</g>
				<g>
					<path fill="#5E2323" d="M1075.034,1158.403c-160.439,0-280.796-167.845-288.862-320.237
						c-1.367-25.82-11.143-50.015-27.534-68.127l-44.492-49.163c-19.268-21.294-17.622-54.294,3.672-73.56l79.985-72.393
						c10.317-9.336,23.652-14.082,37.544-13.4c13.892,0.693,26.685,6.755,36.021,17.07l44.487,49.162
						c16.392,18.108,39.497,30.247,65.054,34.177c152.012,23.37,308.291,161.785,289.502,323.04
						c-11.333,97.251-93.706,171.797-191.606,173.398C1077.544,1158.391,1076.289,1158.403,1075.034,1158.403z M832.729,593.586
						c-4.956,0-9.668,1.812-13.369,5.161l-79.985,72.393c-8.159,7.38-8.789,20.022-1.406,28.179l44.487,49.163l0,0
						c21.333,23.571,34.043,54.819,35.796,87.988c7.3,137.891,114.312,289.797,256.743,289.805c1.099,0,2.183-0.01,3.281-0.027
						c83.208-1.36,150.586-62.339,160.22-144.995c16.68-143.12-124.941-266.421-262.471-287.565
						c-32.832-5.049-62.661-20.806-83.989-44.371l-44.492-49.165c-3.579-3.953-8.477-6.274-13.799-6.538
						C833.408,593.596,833.066,593.586,832.729,593.586z"/>
				</g>
				<g opacity="0.2">
					<path fill="#FFFFFF" d="M911.792,866.375c17.087-15.416,37.851,12.347,66.376,43.966c28.526,31.619,54.014,55.12,36.927,70.536
						c-17.087,15.416-54.063,2.28-82.59-29.338C903.979,919.92,894.706,881.791,911.792,866.375z"/>
				</g>
			</g>
			<g>
				<path fill="#FFBF00" d="M1971.797,1030.276H798.052c-31.939,0-57.831-25.892-57.831-57.831l0,0
					c0-31.939,25.892-57.831,57.831-57.831h1173.746c31.939,0,57.832,25.892,57.832,57.831l0,0
					C2029.629,1004.385,2003.737,1030.276,1971.797,1030.276z"/>
			</g>
			<g opacity="0.3">
				<path fill="#5E2323" d="M2029.608,972.424c0,16-6.49,30.394-16.965,40.868c-10.473,10.474-24.867,16.963-40.867,16.963h-165.33
					c15.936,0,30.457-6.49,40.867-16.963c10.475-10.474,16.963-24.867,16.963-40.868c0-31.935-25.895-57.83-57.83-57.83h165.33
					C2003.711,914.594,2029.608,940.489,2029.608,972.424z"/>
			</g>
			<g opacity="0.55">
				<path fill="#FFFFFF" d="M855.904,1030.255h-57.831c-31.935,0-57.831-25.895-57.831-57.831c0-16,6.49-30.393,16.964-40.867
					c10.474-10.474,24.867-16.963,40.867-16.963h57.831c-16,0-30.394,6.49-40.867,16.963
					c-10.474,10.474-16.964,24.867-16.964,40.867C798.073,1004.36,823.968,1030.255,855.904,1030.255z"/>
			</g>
			<g>
				<path fill="#5E2323" d="M1971.797,1046.34H798.052c-40.747,0-73.896-33.149-73.896-73.894c0-40.745,33.149-73.895,73.896-73.895
					h1173.746c40.746,0,73.896,33.149,73.896,73.895C2045.694,1013.19,2012.543,1046.34,1971.797,1046.34z M798.052,930.681
					c-23.032,0-41.768,18.735-41.768,41.766c0,23.029,18.735,41.765,41.768,41.765h1173.746c23.031,0,41.768-18.735,41.768-41.765
					c0-23.03-18.736-41.766-41.768-41.766H798.052z"/>
			</g>
			<g>
				<path fill="#E93B47" d="M1973.961,1030.255l-40.289,408.991l-28.016,284.269l-28.209,286.39l-29.621,300.398
					c-6.813,69.461-65.285,122.408-135.066,122.408h-653.485c-69.847,0-128.32-52.947-135.131-122.408l-52.112-528.828
					l-28.08-285.234l-45.879-465.985H1973.961z"/>
			</g>
			<g>
				<polygon fill="#FFBF00" points="1933.672,1439.246 1905.657,1723.515 1883.424,1715.676 1675.042,1792.783 1466.659,1715.676 
					1258.276,1792.783 1049.958,1715.676 872.032,1781.475 843.952,1496.24 1049.829,1420.098 1258.212,1497.205 1466.595,1420.098 
					1674.913,1497.205 1883.36,1420.098 				"/>
			</g>
			<g opacity="0.3">
				<path fill="#5E2323" d="M1973.961,1030.255l-7.324,74.473l-89.189,905.177l-29.621,300.398
					c-6.813,69.461-65.285,122.408-135.066,122.408h-504.668c279.322-14.972,470.034-123.244,500.62-399.995l66.955-679.638
					c13.943-141.492-92.207-266.406-234.085-275.466l-743.509-47.357H1973.961z"/>
			</g>
			<g opacity="0.55">
				<path fill="#FFFFFF" d="M1106.375,2432.711h-47.1c-69.847,0-128.32-52.947-135.131-122.408L798.073,1030.255h47.1
					l126.071,1280.048C978.119,2379.764,1036.528,2432.711,1106.375,2432.711z"/>
			</g>
			<g>
				<path fill="#5E2323" d="M1712.735,2448.809h-653.477c-78.452,0-143.413-58.877-151.104-136.953L782.065,1031.851
					c-0.444-4.512,1.04-9.004,4.082-12.364c3.047-3.359,7.368-5.276,11.904-5.276H1973.94c4.537,0,8.857,1.917,11.904,5.276
					c3.043,3.36,4.527,7.852,4.082,12.364l-126.088,1280.005C1856.147,2389.932,1791.186,2448.809,1712.735,2448.809z
					 M815.776,1046.34l124.351,1262.366c6.064,61.555,57.28,107.974,119.131,107.974h653.477
					c61.85,0,113.066-46.419,119.131-107.974l124.35-1262.366H815.776z"/>
			</g>
		</g>
		<g>
			<g>
				<path fill="#FEC828" d="M683.306,1833.335l-101.296-4.928l25.708-488.161c0.779-16.014,14.392-28.363,30.406-27.584
					l43.306,2.107c16.014,0.778,28.363,14.392,27.584,30.405L683.306,1833.335z"/>
			</g>
			<g opacity="0.3">
				<path fill="#5E2323" d="M713.053,1345.639l-25.707,488.107l-101.259-4.896l0.099-2.041l63.277,3.052l17.987-329.618l3.24-66.27
					l4.48-92.22c0.586-12.319-6.447-23.175-16.972-27.865l27.264,1.31C701.502,1316.002,713.857,1329.599,713.053,1345.639z"/>
			</g>
			<g opacity="0.55">
				<path fill="#FFFFFF" d="M635.587,1346.78l-25.464,482.996l-28.093-1.353l25.701-488.151
					c0.771-16.042,14.365-28.361,30.408-27.59l43.262,2.106c6.173,0.27,11.778,2.522,16.311,5.979l-31.717-1.578
					C650.024,1318.426,636.431,1330.745,635.587,1346.78z"/>
			</g>
			<g>
				<path fill="#5E2323" d="M683.315,1847.129c-0.225,0-0.449-0.005-0.679-0.015l-101.294-4.927
					c-3.667-0.179-7.109-1.81-9.565-4.531c-2.461-2.723-3.735-6.312-3.54-9.974l25.708-488.161
					c0.552-11.37,5.522-21.895,13.994-29.58c8.472-7.69,19.448-11.619,30.854-11.06l43.306,2.106
					c23.589,1.152,41.841,21.274,40.693,44.858L697.08,1834.06C696.694,1841.418,690.605,1847.129,683.315,1847.129z
					 M596.514,1815.303l73.74,3.586l24.985-474.438c0.405-8.337-6.089-15.495-14.482-15.903l-43.301-2.106
					c-4.141-0.208-7.969,1.201-10.981,3.933c-3.013,2.734-4.78,6.478-4.976,10.542L596.514,1815.303z"/>
			</g>
			<g>
				<path fill="#FEC828" d="M545.242,1822.573l-100.681,12.183l-56.777-485.529c-1.926-15.916,9.416-30.38,25.332-32.306
					l43.043-5.208c15.917-1.926,30.38,9.416,32.306,25.332L545.242,1822.573z"/>
			</g>
			<g opacity="0.3">
				<path fill="#5E2323" d="M492.524,1336.822l56.77,485.477l-100.64,12.207l-0.247-2.028l62.889-7.637l-37.718-327.946
					l-7.955-65.869l-11.097-91.66c-1.494-12.243-10.254-21.761-21.417-24.613l27.096-3.295
					C476.152,1309.552,490.619,1320.876,492.524,1336.822z"/>
			</g>
			<g opacity="0.55">
				<path fill="#FFFFFF" d="M416.354,1350.979l56.149,480.397l-27.92,3.393l-56.782-485.52
					c-1.938-15.943,9.389-30.374,25.333-32.312l43-5.201c6.13-0.773,12.035,0.505,17.084,3.149l-31.531,3.78
					C425.816,1320.601,414.488,1335.03,416.354,1350.979z"/>
			</g>
			<g>
				<path fill="#5E2323" d="M444.561,1848.55c-3.081,0-6.089-1.03-8.535-2.957c-2.881-2.268-4.741-5.591-5.166-9.235l-56.777-485.53
					c-2.827-23.386,13.936-44.766,37.378-47.6l43.042-5.208c23.438-2.856,44.819,13.926,47.661,37.366l56.782,485.586
					c0.884,7.544-4.502,14.385-12.046,15.295l-100.684,12.183C445.664,1848.518,445.112,1848.55,444.561,1848.55z M459.658,1325.298
					c-0.61,0-1.226,0.036-1.846,0.109l-43.042,5.208c-8.335,1.011-14.302,8.615-13.291,16.955l55.176,471.826l73.291-8.867
					l-55.181-471.882C473.838,1330.979,467.246,1325.298,459.658,1325.298z"/>
			</g>
			<g>
				<path fill="#FEC828" d="M895.062,1600.073l-100.477-13.77l46.801-341.511c2.176-15.884,16.818-26.996,32.702-24.819
					l42.956,5.887c15.884,2.177,26.996,16.817,24.819,32.702L895.062,1600.073z"/>
			</g>
			<g opacity="0.3">
				<path fill="#6B184E" d="M899.054,1600.856l-100.442-13.763l0.241-2.023l62.787,8.595l25.253-184.298
					c-11.777-24.354-8.998-46.285,9-65.68l12.541-91.525c1.673-12.167-4.404-23.607-14.48-29.238l27.07,3.725
					c15.914,2.173,26.997,16.791,24.825,32.705L899.054,1600.856z"/>
				<path fill="#5E2323" d="M901.27,1603.776l-105.527-14.46l0.845-7.171l62.837,8.599l24.8-180.959
					c-11.802-24.941-8.701-47.559,9.214-67.254l12.427-90.72c1.494-10.867-3.677-21.316-13.174-26.624l-11.992-6.704l40.674,5.599
					c8.384,1.143,15.811,5.476,20.913,12.199c5.098,6.722,7.275,15.039,6.133,23.423L901.27,1603.776z M864.282,1593.477
					l32.554,4.46l46.445-338.936c0.957-7.011-0.864-13.967-5.127-19.587c-4.263-5.618-10.474-9.241-17.485-10.195l-17.661-2.432
					c6.274,6.784,9.316,16.123,7.993,25.729l-12.651,92.332l-0.557,0.601c-17.222,18.56-20.024,39.097-8.564,62.79l0.342,0.703
					L864.282,1593.477z"/>
			</g>
			<g opacity="0.55">
				<path fill="#FFFFFF" d="M868.577,1253.739l-46.106,336.388l-27.867-3.805l46.793-341.502
					c2.172-15.914,16.791-26.996,32.705-24.824l42.912,5.883c6.126,0.807,11.512,3.543,15.726,7.382l-31.458-4.347
					C885.439,1226.756,870.82,1237.839,868.577,1253.739z"/>
			</g>
			<g>
				<path fill="#5E2323" d="M895.083,1613.869c-0.625,0-1.255-0.041-1.895-0.129l-100.479-13.77
					c-3.623-0.496-6.899-2.412-9.111-5.327s-3.179-6.587-2.681-10.213l46.802-341.511c3.213-23.394,24.893-39.813,48.237-36.614
					l42.964,5.889c23.389,3.203,39.814,24.842,36.611,48.237l-46.802,341.514C907.783,1608.857,901.865,1613.869,895.083,1613.869z
					 M810.127,1574.509l73.145,10.024l44.927-327.844c1.138-8.323-4.702-16.021-13.022-17.161l-42.964-5.889
					c-8.32-1.157-16.021,4.702-17.158,13.027L810.127,1574.509z"/>
			</g>
			<g>
				<path fill="#FEC828" d="M598.563,1810.355l-101.27,5.443l-18.5-344.207c-0.86-16.009,11.42-29.685,27.43-30.545l43.294-2.327
					c16.01-0.86,29.685,11.42,30.546,27.43L598.563,1810.355z"/>
			</g>
			<g opacity="0.3">
				<path fill="#5E2323" d="M602.631,1810.371l-101.234,5.442l-0.145-2.032l63.28-3.41l-9.986-185.752
					c-16.163-21.693-17.573-43.755-3.559-66.198l-4.959-92.247c-0.653-12.264-8.781-22.352-19.739-25.979l27.286-1.451
					c16.038-0.871,29.681,11.394,30.552,27.431L602.631,1810.371z"/>
			</g>
			<g opacity="0.55">
				<path fill="#FFFFFF" d="M507.185,1475.245l18.215,339.044l-28.084,1.524l-18.505-344.196
					c-0.871-16.038,11.393-29.682,27.431-30.552l43.251-2.322c6.169-0.363,11.975,1.306,16.837,4.281l-31.713,1.669
					C518.65,1445.564,506.386,1459.208,507.185,1475.245z"/>
			</g>
			<g>
				<path fill="#5E2323" d="M497.285,1829.595c-7.28,0-13.369-5.701-13.765-13.057l-18.501-344.207
					c-0.615-11.421,3.257-22.399,10.898-30.91c7.646-8.511,18.145-13.535,29.57-14.148l43.286-2.326
					c11.445-0.643,22.397,3.252,30.913,10.898c8.511,7.642,13.54,18.142,14.15,29.565l18.501,344.206
					c0.195,3.652-1.064,7.234-3.511,9.956c-2.446,2.723-5.869,4.363-9.521,4.559l-101.27,5.441
					C497.783,1829.587,497.534,1829.595,497.285,1829.595z M551.094,1452.473c-0.278,0-0.557,0.008-0.835,0.022l-43.291,2.326
					c-4.067,0.22-7.803,2.007-10.522,5.034c-2.715,3.027-4.097,6.934-3.877,10.996l17.759,330.433l73.721-3.963l-17.759-330.432
					c-0.22-4.065-2.007-7.798-5.034-10.518C558.438,1453.84,554.858,1452.473,551.094,1452.473z"/>
			</g>
			<g>
				<path fill="#FEC828" d="M765.208,1960.366l-100.833-10.848l54.229-485.819c1.715-15.941,16.027-27.473,31.968-25.758
					l43.108,4.637c15.941,1.715,27.473,16.027,25.758,31.968L765.208,1960.366z"/>
			</g>
			<g opacity="0.3">
				<path fill="#5E2323" d="M823.442,1475.245l-54.225,485.767l-100.799-10.813l0.217-2.032l62.99,6.749l37.245-328.001
					l7.111-65.966l9.87-91.8c1.306-12.264-5.08-23.513-15.312-28.81l27.141,2.902
					C813.645,1444.984,825.184,1459.279,823.442,1475.245z"/>
			</g>
			<g opacity="0.55">
				<path fill="#FFFFFF" d="M746.042,1471.852l-53.684,480.68l-27.966-2.994l54.222-485.812c1.709-15.97,16-27.473,31.97-25.763
					l43.065,4.635c6.147,0.629,11.61,3.207,15.933,6.922l-31.571-3.431C762.113,1444.391,747.822,1455.894,746.042,1471.852z"/>
			</g>
			<g>
				<path fill="#5E2323" d="M765.225,1974.162c-0.493,0-0.986-0.026-1.489-0.08L662.9,1963.234
					c-3.647-0.393-6.987-2.222-9.282-5.083c-2.3-2.858-3.359-6.519-2.954-10.163l54.229-485.82
					c1.216-11.318,6.797-21.533,15.703-28.711s20.112-10.454,31.45-9.231l43.105,4.637c23.481,2.526,40.527,23.682,38.003,47.158
					l-54.233,485.876C778.135,1968.945,772.163,1974.162,765.225,1974.162z M679.619,1937.285l73.403,7.896l52.705-472.166
					c0.894-8.296-5.171-15.822-13.525-16.721l-43.105-4.637c-4.053-0.441-8.022,0.73-11.191,3.284
					c-3.169,2.551-5.151,6.187-5.586,10.231L679.619,1937.285z"/>
			</g>
			<g>
				<path fill="#FEC828" d="M1055.596,1855.251l-100.833-10.847l54.229-485.82c1.715-15.94,16.027-27.473,31.968-25.758
					l43.108,4.638c15.941,1.715,27.473,16.027,25.759,31.968L1055.596,1855.251z"/>
			</g>
			<g opacity="0.3">
				<path fill="#5E2323" d="M1113.831,1370.131l-54.225,485.767l-100.798-10.813l0.217-2.032l62.99,6.748l37.245-328l7.111-65.966
					l9.87-91.8c1.306-12.265-5.08-23.514-15.312-28.811l27.141,2.903C1104.034,1339.869,1115.572,1354.165,1113.831,1370.131z"/>
			</g>
			<g opacity="0.55">
				<path fill="#FFFFFF" d="M1036.431,1366.737l-53.684,480.679l-27.966-2.994l54.222-485.811c1.709-15.971,16-27.473,31.97-25.764
					l43.065,4.635c6.147,0.63,11.61,3.207,15.934,6.923l-31.571-3.432C1052.502,1339.276,1038.211,1350.779,1036.431,1366.737z"/>
			</g>
			<g>
				<path fill="#5E2323" d="M1055.61,1869.048c-0.493,0-0.986-0.027-1.489-0.081l-100.835-10.847
					c-3.647-0.394-6.987-2.222-9.282-5.083c-2.3-2.861-3.359-6.519-2.954-10.164l54.233-485.82
					c1.216-11.318,6.797-21.533,15.703-28.711c8.906-7.175,20.103-10.464,31.45-9.23l43.105,4.636
					c23.477,2.527,40.522,23.682,37.998,47.158l-54.233,485.877C1068.521,1863.83,1062.549,1869.048,1055.61,1869.048z
					 M970.005,1832.17l73.403,7.896l52.705-472.165c0.894-8.296-5.171-15.823-13.521-16.722l-43.105-4.636
					c-4.043-0.447-8.022,0.729-11.191,3.283c-3.169,2.552-5.151,6.187-5.586,10.232L970.005,1832.17z"/>
			</g>
			<g>
				<path fill="#FEC828" d="M1012.086,1788.589l-101.366,3.171l-10.775-344.535c-0.501-16.024,12.083-29.421,28.107-29.922
					l43.335-1.355c16.025-0.502,29.421,12.083,29.923,28.107L1012.086,1788.589z"/>
			</g>
			<g opacity="0.3">
				<path fill="#5E2323" d="M1016.153,1788.695l-101.331,3.172l-0.1-2.035l63.341-1.991l-5.818-185.929
					c-15.672-22.051-16.587-44.138-2.074-66.262l-2.89-92.334c-0.378-12.276-8.278-22.543-19.151-26.416l27.312-0.839
					c16.054-0.511,29.418,12.056,29.929,28.108L1016.153,1788.695z"/>
			</g>
			<g opacity="0.55">
				<path fill="#FFFFFF" d="M928.246,1451.514l10.606,339.367l-28.111,0.895l-10.782-344.525
					c-0.511-16.053,12.056-29.418,28.11-29.929l43.292-1.352c6.175-0.225,11.941,1.574,16.736,4.658l-31.743,0.957
					C940.375,1422.098,927.807,1435.463,928.246,1451.514z"/>
			</g>
			<g>
				<path fill="#5E2323" d="M910.718,1805.554c-3.506,0-6.885-1.333-9.443-3.74c-2.666-2.505-4.229-5.967-4.346-9.621
					l-10.771-344.536c-0.356-11.434,3.76-22.319,11.587-30.659c7.832-8.338,18.442-13.125,29.878-13.484l43.335-1.354
					c11.299-0.269,22.319,3.76,30.659,11.592c8.335,7.832,13.125,18.442,13.482,29.875l10.776,344.531
					c0.239,7.615-5.742,13.982-13.359,14.222l-101.368,3.171C911.006,1805.552,910.859,1805.554,910.718,1805.554z
					 M972.305,1429.727c-0.161,0-0.322,0.005-0.488,0.01l-43.335,1.354c-4.067,0.127-7.841,1.829-10.625,4.795
					c-2.788,2.967-4.248,6.839-4.121,10.906l10.342,330.749l73.789-2.31l-10.347-330.744c-0.127-4.07-1.826-7.845-4.795-10.628
					C979.878,1431.184,976.196,1429.727,972.305,1429.727z"/>
			</g>
			<g>
				<path fill="#FEC828" d="M854.57,1896.416l-98.953-22.213l75.501-336.334c3.512-15.643,19.04-25.477,34.683-21.966l42.304,9.497
					c15.643,3.512,25.478,19.039,21.966,34.683L854.57,1896.416z"/>
			</g>
			<g opacity="0.3">
				<path fill="#6B184E" d="M858.482,1897.533l-98.919-22.204l0.412-1.995l61.835,13.871l40.741-181.503
					c-9.677-25.263-5.054-46.88,14.52-64.685l20.232-90.137c2.696-11.982-2.393-23.896-11.958-30.358l26.658,6
					c15.673,3.509,25.481,19.013,21.972,34.686L858.482,1897.533z"/>
				<path fill="#5E2323" d="M860.444,1900.63l-103.931-23.33l1.455-7.07l61.88,13.879l40.005-178.215
					c-9.648-25.848-4.648-48.123,14.868-66.235l20.054-89.346c2.407-10.701-1.865-21.551-10.879-27.642l-11.392-7.695l40.068,9.019
					c8.252,1.848,15.283,6.792,19.8,13.923c4.512,7.127,5.981,15.601,4.131,23.857L860.444,1900.63z M824.458,1887.241l32.061,7.197
					l74.927-333.797c1.548-6.906,0.322-13.991-3.452-19.951c-3.774-5.959-9.653-10.093-16.558-11.638l-17.393-3.916
					c5.679,7.29,7.92,16.853,5.791,26.313l-20.415,90.935l-0.605,0.55c-18.726,17.038-23.252,37.266-13.838,61.841l0.278,0.732
					L824.458,1887.241z"/>
			</g>
			<g opacity="0.55">
				<path fill="#FFFFFF" d="M857.456,1549.082l-74.376,331.287l-27.446-6.146l75.494-336.325
					c3.509-15.673,19.013-25.48,34.687-21.971l42.261,9.489c6.036,1.322,11.171,4.503,15.045,8.685l-30.978-6.989
					C876.538,1523.621,861.035,1533.429,857.456,1549.082z"/>
			</g>
			<g>
				<path fill="#5E2323" d="M854.57,1910.21c-1.011,0-2.021-0.11-3.022-0.335l-98.955-22.214c-3.569-0.801-6.675-2.988-8.633-6.079
					s-2.607-6.831-1.807-10.403l75.503-336.33c2.505-11.16,9.209-20.679,18.872-26.8c9.658-6.12,21.108-8.12,32.295-5.605
					l42.305,9.497c11.162,2.505,20.679,9.207,26.797,18.87c6.123,9.665,8.115,21.133,5.61,32.292l-75.503,336.336
					c-0.806,3.569-2.988,6.675-6.079,8.633C859.727,1909.479,857.163,1910.21,854.57,1910.21z M772.095,1863.762l72.036,16.172
					l72.48-322.873c0.894-3.97,0.186-8.05-1.992-11.487s-5.562-5.822-9.536-6.714l-42.305-9.497
					c-3.979-0.9-8.052-0.178-11.489,1.995c-3.438,2.178-5.82,5.563-6.709,9.533L772.095,1863.762z"/>
			</g>
			<g>
				<path fill="#E93B47" d="M1182.951,1648.687l-52.468,326.271l-20.029,124.312l-48.041,298.695
					c-3.265,20.683-21.117,35.85-42.09,35.85h-66.764c-8.636,0-17.054-2.612-23.875-7.838
					c-110.015-84.253-248.914-79.826-358.276-0.29c-7.111,5.152-15.529,8.128-24.31,8.128h-67.272
					c-20.973,0-38.825-15.167-42.163-35.85l-45.791-284.689l-23.005-143.18l-51.669-321.409c-4.208-25.907,15.82-49.42,42.091-49.42
					h55.442c13.28,0,25.763,6.168,33.818,16.764c77.214,101.234,172.715,159.652,301.525,154.5
					c129.246-1.597,224.312-53.266,301.526-154.5c7.983-10.596,20.537-16.764,33.818-16.764h55.442
					C1167.13,1599.267,1187.16,1622.779,1182.951,1648.687z"/>
			</g>
			<g>
				<polygon fill="#FFBB34" points="1130.483,1974.958 1110.454,2099.27 1075.911,2083.74 951.164,2144.771 826.417,2083.74 
					701.67,2144.771 576.924,2083.74 452.104,2144.771 391.872,2113.275 368.867,1970.096 452.104,2007.396 576.851,1946.365 
					701.525,2007.396 826.272,1946.365 951.092,2007.396 1075.838,1946.365 				"/>
			</g>
			<g opacity="0.55">
				<path fill="#FFFFFF" d="M479.064,2409.885c1.161,7.111,3.991,13.57,8.128,18.94h-11.901c-20.973,0-38.825-15.167-42.163-35.849
					l-120.466-749.279c-4.208-25.907,15.82-49.42,42.091-49.42h55.442c13.28,0,25.763,6.168,33.818,16.764
					c0.072,0.072,0.072,0.072,0.145,0.145h-43.469c-26.27,0-46.299,23.513-42.09,49.42L479.064,2409.885z"/>
			</g>
			<g opacity="0.55">
				<path fill="#FFFFFF" d="M1165.147,1611.186h-43.47c-13.28,0-25.834,6.169-33.817,16.764
					c-77.214,101.234-172.207,152.904-301.526,154.5c-57.112,2.322-107.621-7.91-152.904-28.81
					c32.947,9.289,68.433,13.426,106.967,11.901c129.246-1.597,224.312-53.266,301.525-154.5
					c7.983-10.596,20.538-16.764,33.818-16.764h55.442C1145.19,1594.277,1157.455,1600.953,1165.147,1611.186z"/>
			</g>
			<g>
				<path fill="#5E2323" d="M1020.322,2449.88H953.56c-12.485,0-24.121-3.854-33.643-11.149
					c-101.885-78.025-231.807-78.055-339.063-0.054c-10.117,7.334-21.782,11.203-33.755,11.203h-67.275
					c-29.004,0-53.403-20.757-58.022-49.353l-120.464-749.292c-2.759-16.968,2.061-34.241,13.223-47.361
					c11.172-13.137,27.476-20.671,44.727-20.671h55.444c18.452,0,35.439,8.42,46.606,23.103
					c79.541,104.292,173.818,152.783,288.091,148.172c121.641-1.541,213.457-48.626,289.399-148.188
					c10.869-14.429,28.311-23.086,46.592-23.086h55.439c17.251,0,33.555,7.534,44.727,20.671
					c11.157,13.115,15.977,30.381,13.223,47.371l-120.537,749.272C1073.76,2429.102,1049.385,2449.88,1020.322,2449.88z
					 M752.334,2348.799c65.854,0,131.035,21.477,187.114,64.424c3.872,2.964,8.75,4.528,14.111,4.528h66.763
					c13.154,0,24.185-9.375,26.221-22.292l120.547-749.324c0-0.007,0-0.017,0.005-0.024c1.245-7.681-0.933-15.488-5.977-21.421
					c-5.063-5.947-12.446-9.357-20.259-9.357h-55.439c-8.252,0-16.099,3.874-20.986,10.363
					c-82.476,108.133-182.285,159.233-314.155,160.896c-5.449,0.22-10.869,0.329-16.23,0.329
					c-117.837,0.008-215.654-52.829-298.271-161.149c-5.049-6.641-12.715-10.439-21.045-10.439h-55.444
					c-7.813,0-15.195,3.41-20.259,9.357c-5.044,5.933-7.222,13.74-5.977,21.421l120.469,749.307
					c2.09,12.938,13.154,22.334,26.304,22.334H547.1c5.156,0,10.303-1.753,14.878-5.07
					C620.542,2370.088,686.772,2348.799,752.334,2348.799z"/>
			</g>
			<g opacity="0.3">
				<path fill="#5E2323" d="M1183.313,1637.51c-0.145-1.379-0.363-2.829-0.653-4.136c-0.217-1.379-0.58-2.686-1.016-3.919
					c0-0.145,0-0.217-0.072-0.363c-0.363-1.232-0.871-2.467-1.378-3.7c-0.436-1.089-0.944-2.177-1.524-3.267
					c-7.111-13.497-21.19-22.858-37.809-22.858h-55.442c-5.443,0-10.813,1.016-15.748,3.12c17.852,7.111,29.536,25.98,26.198,46.3
					l-70.282,436.755v-0.001c-26.925,129.21-78.986,202.688-153.937,225.405c-24.681,7.48-50.863,7.584-76.353,3.666
					c-76.695-11.786-155.983,8.596-223.889,57.981c-7.111,5.152-15.529,8.128-24.31,8.128h-67.272
					c-20.973,0-38.825-15.167-42.163-35.85l-116.184-722.646c-4.137,7.838-5.806,17.055-4.282,26.562l120.465,749.278
					c3.338,20.683,21.19,35.85,42.163,35.85h67.272c8.781,0,17.199-2.976,24.31-8.128c109.362-79.536,248.261-83.963,358.276,0.29
					c4.136,3.193,8.853,5.37,13.788,6.604c1.234,0.291,2.467,0.581,3.773,0.727c1.016,0.217,2.032,0.29,3.121,0.362
					c1.016,0.073,2.104,0.146,3.193,0.146h66.764c20.973,0,38.825-15.167,42.09-35.85l120.538-749.278
					c0.363-2.322,0.581-4.645,0.581-6.967C1183.531,1640.268,1183.458,1638.889,1183.313,1637.51z"/>
			</g>
		</g>
		<g>
			<g>
				<path fill="#FFBF00" d="M2794.413,1501.296h-706.26c-20.855,0-37.762-16.907-37.762-37.764v-1.581
					c0-20.855,16.906-37.763,37.762-37.763h706.26c20.855,0,37.762,16.907,37.762,37.763v1.581
					C2832.174,1484.389,2815.268,1501.296,2794.413,1501.296z"/>
			</g>
			<g opacity="0.3">
				<path fill="#5E2323" d="M2832.192,1461.928v1.606c0,20.884-16.898,37.782-37.783,37.782h-156.334
					c20.818,0,37.717-16.898,37.717-37.782v-1.606c0-20.818-16.898-37.719-37.717-37.719h156.334
					C2815.293,1424.209,2832.192,1441.109,2832.192,1461.928z"/>
			</g>
			<g>
				<g>
					<path fill="#FFFFFF" d="M2474.151,1361.007l-82.691-11.784l45.398-282.178c2.354-16.544,14.352-30.092,30.49-34.438
						l248.77-66.979c20.248-5.452,41.082,6.544,46.531,26.792l1.977,7.338c5.449,20.246-6.545,41.077-26.791,46.528l-222.168,59.817
						L2474.151,1361.007z"/>
					<path fill="#5E2323" d="M2476.299,1363.933l-87.818-12.517l45.82-284.785c2.496-17.547,15.205-31.902,32.373-36.526
						l248.77-66.98c21.572-5.815,43.891,7.024,49.707,28.621l1.979,7.339c5.811,21.595-7.027,43.89-28.619,49.705l-220.551,59.382
						L2476.299,1363.933z M2394.438,1347.031l77.564,11.052l41.377-254.048l223.783-60.251c18.834-5.071,30.029-24.52,24.955-43.353
						l-1.971-7.339c-5.064-18.831-24.498-30.029-43.355-24.963l-248.77,66.979c-15.16,4.082-26.387,16.761-28.598,32.3
						L2394.438,1347.031z"/>
				</g>
			</g>
			<g opacity="0.3">
				<path fill="#5E2323" d="M2764.625,999.759l-1.977-7.339c-3.961-14.711-16.051-25.027-30.129-27.497l1.008,3.738
					c5.455,20.244-6.537,41.075-26.781,46.526l-202.055,54.4c-12.25,3.298-21.434,13.465-23.473,25.986l-38.168,234.337
					l-47.398-6.755l-4.193,26.067l82.689,11.786l41.52-254.906l222.172-59.816
					C2758.084,1040.835,2770.079,1020.003,2764.625,999.759z"/>
			</g>
			<g>
				<g>
					<path fill="#5E2323" d="M2474.17,1377.075c-0.758,0-1.52-0.054-2.285-0.164l-82.691-11.784
						c-4.268-0.608-8.109-2.905-10.668-6.377c-2.555-3.47-3.609-7.822-2.926-12.078l45.4-282.18
						c3.219-22.651,19.791-41.37,42.174-47.396l248.77-66.982c28.773-7.742,58.471,9.36,66.221,38.127l1.973,7.346
						c7.738,28.76-9.361,58.465-38.125,66.209l-212.154,57.121l-39.854,244.673
						C2488.725,1371.457,2481.918,1377.075,2474.17,1377.075z M2409.917,1335.627l50.908,7.256l38.99-239.363
						c1.016-6.23,5.58-11.287,11.678-12.929l222.17-59.817c11.654-3.137,18.588-15.181,15.447-26.841l-1.971-7.344
						c-3.141-11.657-15.191-18.608-26.846-15.449l-248.771,66.98c-9.945,2.678-17.309,10.993-18.758,21.187L2409.917,1335.627z"/>
				</g>
			</g>
			<g>
				<path fill="#FFBF00" d="M2709.545,1332.088H2173.02c-20.283,0-37.789,14.221-41.945,34.073l-12.145,58.027h644.705
					l-12.145-58.027C2747.334,1346.309,2729.829,1332.088,2709.545,1332.088z"/>
			</g>
			<g opacity="0.3">
				<path fill="#5E2323" d="M2763.631,1424.209h-101.717l-12.146-58.022c-4.176-19.855-21.654-34.12-41.959-34.12h101.717
					c20.307,0,37.783,14.265,41.961,34.12L2763.631,1424.209z"/>
			</g>
			<g opacity="0.55">
				<path fill="#FFFFFF" d="M2137.389,1501.316h-49.221c-20.883,0-37.781-16.898-37.781-37.782v-1.606
					c0-20.818,16.898-37.719,37.781-37.719h49.221c-20.818,0-37.717,16.9-37.717,37.719v1.606
					C2099.672,1484.418,2116.571,1501.316,2137.389,1501.316z"/>
			</g>
			<g opacity="0.55">
				<path fill="#FFFFFF" d="M2222.272,1332.066c-20.305,0-37.783,14.265-41.959,34.12l-12.145,58.022h-49.221l12.145-58.022
					c4.113-19.855,21.654-34.12,41.895-34.12H2222.272z"/>
			</g>
			<g>
				<path fill="#5E2323" d="M2794.415,1517.36h-706.26c-29.684,0-53.828-24.147-53.828-53.828v-1.582
					c0-29.68,24.145-53.825,53.828-53.825h706.26c29.678,0,53.822,24.146,53.822,53.825v1.582
					C2848.237,1493.213,2824.092,1517.36,2794.415,1517.36z M2088.155,1440.254c-11.963,0-21.699,9.733-21.699,21.696v1.582
					c0,11.966,9.736,21.699,21.699,21.699h706.26c11.963,0,21.693-9.733,21.693-21.699v-1.582c0-11.963-9.73-21.696-21.693-21.696
					H2088.155z"/>
			</g>
			<g>
				<path fill="#5E2323" d="M2763.633,1440.254H2118.93c-4.838,0-9.418-2.181-12.465-5.936c-3.053-3.755-4.248-8.684-3.258-13.42
					l12.145-58.027c5.678-27.146,29.932-46.849,57.666-46.849h536.527c27.734,0,51.988,19.702,57.666,46.849l12.145,58.027
					c0.99,4.736-0.205,9.665-3.258,13.42C2773.051,1438.073,2768.471,1440.254,2763.633,1440.254z M2138.706,1408.125h605.152
					l-8.092-38.672c-2.582-12.344-13.613-21.302-26.221-21.302h-536.527c-12.607,0-23.639,8.958-26.221,21.302L2138.706,1408.125z"
					/>
			</g>
			<g>
				<path fill="#E93B47" d="M2763.631,1501.316l-21.205,307.788l-12.723,183.772l-23.582,342.1
					c-3.791,55.004-49.541,97.734-104.674,97.734h-320.316c-55.133,0-100.883-42.73-104.674-97.734l-20.049-290.245l-13.686-198.616
					l-23.775-344.799H2763.631z"/>
			</g>
			<g>
				<polygon fill="#FFBF00" points="2742.426,1809.104 2729.704,1992.877 2722.442,1988.893 2612.692,2056.105 2502.944,1988.893 
					2393.129,2056.105 2283.379,1988.893 2173.567,2056.105 2156.409,2044.731 2142.723,1846.115 2173.502,1862.951 
					2283.25,1795.803 2393,1862.951 2502.815,1795.803 2612.565,1862.951 2722.377,1795.803 				"/>
			</g>
			<g opacity="0.3">
				<path fill="#5E2323" d="M2763.631,1501.316l-57.51,833.66c-3.791,55.004-49.541,97.734-104.674,97.734h-121.637
					c55.197,0,100.947-42.73,104.738-97.734l57.508-833.66H2763.631z"/>
			</g>
			<g opacity="0.55">
				<path fill="#FFFFFF" d="M2319.684,2432.711h-38.553c-55.133,0-100.883-42.73-104.674-97.734l-57.51-833.66h38.555l57.508,833.66
					C2218.803,2389.98,2264.553,2432.711,2319.684,2432.711z"/>
			</g>
			<g>
				<path fill="#5E2323" d="M2601.43,2448.76h-320.293c-63.33,0-116.357-49.492-120.717-112.674l-57.516-833.684
					c-0.307-4.443,1.246-8.812,4.283-12.068c3.037-3.254,7.289-5.103,11.742-5.103h644.703c4.451,0,8.705,1.849,11.742,5.103
					c3.037,3.257,4.59,7.625,4.283,12.068l-57.516,833.684C2717.788,2399.268,2664.766,2448.76,2601.43,2448.76z M2136.143,1517.36
					l56.328,816.514c3.203,46.406,42.152,82.757,88.666,82.757h320.293c46.52,0,85.463-36.351,88.662-82.757l56.328-816.514
					H2136.143z"/>
			</g>
		</g>
		<g>
			<g>
				<path fill="#F6B041" d="M2279.782,2303.105c0,35.791-14.521,68.176-37.977,91.63c-23.453,23.453-55.902,37.976-91.693,37.976
					h-599.509c-71.646,0-129.669-58.023-129.669-129.605c0-15.421,6.233-29.364,16.322-39.453c0.835-0.835,1.734-1.67,2.634-2.441
					c9.832-8.675,22.747-13.879,36.819-13.879h747.301c14.584,0,27.951,5.654,37.91,14.843
					C2272.907,2272.327,2279.782,2286.913,2279.782,2303.105z"/>
			</g>
			<g opacity="0.3">
				<path fill="#5E2323" d="M2279.782,2303.105c0,35.791-14.521,68.176-37.977,91.63c-23.453,23.453-55.902,37.976-91.693,37.976
					h-158.713c35.791,0,68.176-14.522,91.631-37.976c14.367-14.368,25.389-32.114,31.768-51.94
					c3.873-12.043-2.24-24.667-13.643-30.147l-0.199-0.096c-6.297-5.012-12.594-9.51-18.826-13.43
					c-9.768-6.104-20.563-9.96-31.678-11.63c-16.578-2.507-33.928-0.064-49.479,7.261c-1.092,0.514-2.119,1.028-3.148,1.542
					c-1.992,1.027-3.982,1.992-5.975,2.763c-23.391,9.96-49.543,8.161-77.236-0.128c-72.996-23.582-134.424-20.241-180.689,18.441
					c-26.795,20.176-53.846,21.333-81.154,4.048c-14.973-10.024-30.586-18.698-46.973-25.574
					c-17.348-7.196-36.56-8.225-54.681-3.148c-49.413,13.815-93.878,3.92-111.228-31.485c9.832-8.675,22.747-13.879,36.819-13.879
					h747.301c1.799,0,3.598,0.064,5.396,0.257c0.836,0.063,1.734,0.192,2.57,0.321c1.799,0.257,3.533,0.578,5.27,1.027
					c0.77,0.193,1.477,0.386,2.184,0.578c1.799,0.515,3.535,1.094,5.27,1.8c1.605,0.643,3.148,1.35,4.689,2.12
					c1.223,0.643,2.379,1.285,3.535,1.992c0.449,0.257,0.9,0.578,1.414,0.9c1.221,0.771,2.441,1.605,3.662,2.506
					c1.35,1.092,2.635,2.185,3.92,3.341C2272.907,2272.327,2279.782,2286.913,2279.782,2303.105z"/>
			</g>
			<g opacity="0.55">
				<path fill="#FFFFFF" d="M1589.542,2432.711h-38.939c-71.646,0-129.669-58.023-129.669-129.605
					c0-15.421,6.233-29.364,16.322-39.453c10.088-10.088,24.096-16.32,39.453-16.32h38.939c-15.357,0-29.365,6.232-39.453,16.32
					c-10.088,10.089-16.321,24.032-16.321,39.453C1459.873,2374.688,1517.896,2432.711,1589.542,2432.711z"/>
			</g>
			<g>
				<path fill="#5E2323" d="M2150.141,2448.809h-599.565c-80.342,0-145.708-65.364-145.708-145.708
					c0-39.614,32.231-71.844,71.846-71.844h747.291c39.613,0,71.84,32.229,71.84,71.844
					C2295.844,2383.444,2230.483,2448.809,2150.141,2448.809z M1476.714,2263.386c-21.899,0-39.717,17.815-39.717,39.715
					c0,62.627,50.952,113.579,113.579,113.579h599.565c62.627,0,113.574-50.952,113.574-113.579
					c0-21.899-17.813-39.715-39.711-39.715H1476.714z"/>
			</g>
			<g>
				<path fill="#8CC34B" d="M2183.719,2250.801c-11.76-1.799-23.904,1.992-31.809,10.924
					c-15.293,17.221-32.256,21.334-50.955,12.273c-6.297-5.012-12.594-9.51-18.826-13.43c-9.768-6.104-20.563-9.959-31.678-11.631
					c-16.578-2.506-33.928-0.063-49.479,7.262c-1.092,0.514-2.119,1.027-3.148,1.542c-1.992,1.028-3.982,1.992-5.975,2.763
					c-23.391,9.96-49.543,8.161-77.236-0.128c-72.996-23.582-134.424-20.241-180.689,18.441
					c-26.795,20.177-53.846,21.333-81.154,4.048c-14.973-10.024-30.586-18.698-46.973-25.574
					c-17.348-7.196-36.56-8.225-54.681-3.148c-69.717,19.47-129.669-8.16-117.524-88.288l670.706-0.321l164.303-0.064
					C2276.569,2247.074,2232.36,2258.063,2183.719,2250.801z"/>
			</g>
			<g opacity="0.55">
				<path fill="#FFFFFF" d="M1997.504,2257.934c-24.803,12.787-52.947,11.373-82.891,2.442
					c-72.996-23.582-134.424-20.241-180.689,18.441c-26.795,20.177-53.846,21.333-81.154,4.048
					c-14.973-10.024-30.586-18.698-46.973-25.574c-17.348-7.196-36.56-8.225-54.681-3.148
					c-69.717,19.47-129.669-8.16-117.524-88.288h19.855c0.835,63.55,55.967,84.433,119.067,66.827
					c18.056-5.013,37.333-4.049,54.618,3.212c16.385,6.876,32,15.551,46.971,25.511c27.309,17.349,54.361,16.192,81.156-3.984
					c46.328-38.747,107.758-42.088,180.688-18.506C1955.094,2244.697,1977.391,2254.785,1997.504,2257.934z"/>
			</g>
			<g>
				<path fill="#5E2323" d="M1690.723,2311.008c-15.553,0-31.191-4.863-46.559-14.609c-15.385-10.225-29.877-18.098-44.59-24.26
					c-13.75-5.752-29.414-6.658-44.116-2.552c-45.371,12.679-86.123,6.909-111.816-15.825
					c-15.942-14.102-33.384-41.216-25.957-90.305c1.329-8.777,9.492-14.795,18.287-13.481c8.774,1.328,14.809,9.514,13.481,18.286
					c-2.905,19.211-2.583,45.461,15.479,61.436c17.119,15.148,47.729,18.483,81.885,8.947c21.641-6.05,44.785-4.675,65.167,3.86
					c16.615,6.955,32.871,15.773,49.682,26.953c21.279,13.498,41.168,12.532,62.256-3.242
					c48.516-40.313,114.332-47.435,195.635-21.157c28.848,8.667,52.125,8.19,70.84-1.556c31.895-16.616,70.299-15.283,100.234,3.467
					c6.021,3.771,12.334,8.223,18.789,13.247c8.502,3.779,18.125,4.756,30.439-9.162c11.305-12.767,28.59-18.809,46.24-16.17
					c26.367,3.945,44.166,1.133,54.404-8.601c10.879-10.335,14.961-30.271,12.129-59.253c-0.863-8.831,5.596-16.688,14.424-17.552
					c8.883-0.869,16.686,5.596,17.549,14.427c3.848,39.341-3.545,68.164-21.973,85.671c-17.891,17-44.477,22.583-81.289,17.081
					c-6.836-1.014-13.363,1.098-17.422,5.686c-19.965,22.565-44.799,28.288-69.961,16.115c-1.049-0.51-2.045-1.13-2.963-1.855
					c-6.061-4.787-11.92-8.962-17.418-12.404c-20.336-12.742-46.518-13.577-68.34-2.205c-26.504,13.809-57.656,15.034-95.248,3.733
					c-71.592-23.133-125.729-18.06-165.801,15.417c-0.205,0.174-0.416,0.34-0.625,0.501
					C1726.456,2304.543,1708.647,2311.008,1690.723,2311.008z"/>
			</g>
			<g>
				<path fill="#C3512C" d="M2301.756,1843.417v42.28c0,38.554-31.293,69.847-69.846,69.847h-763.106
					c-38.554,0-69.847-31.293-69.847-69.847v-42.28c0-3.021,0.193-5.911,0.579-8.803c4.305-34.506,33.734-61.107,69.268-61.107
					h763.106c36.627,0,66.762,28.272,69.59,64.256C2301.692,1839.626,2301.756,1841.489,2301.756,1843.417z"/>
			</g>
			<g opacity="0.3">
				<path fill="#5E2323" d="M2301.756,1843.417v42.28c0,38.554-31.293,69.847-69.846,69.847h-180.752
					c38.553,0,69.846-31.293,69.846-69.847v-4.562c-6.039,0-12.209-1.542-18.635-4.627c-6.297-5.012-12.594-9.51-18.826-13.429
					c-25.445-15.937-57.703-16.707-84.305-2.828c-24.867,12.916-53.139,11.631-83.211,2.57
					c-72.932-23.582-134.424-20.24-180.689,18.506c-26.795,20.177-53.846,21.333-81.156,3.984
					c-14.971-9.96-30.584-18.635-46.971-25.51c-17.349-7.262-36.562-8.161-54.681-3.213
					c-76.465,20.883-141.942,11.181-152.994-21.976c4.305-34.506,33.734-61.107,69.268-61.107h763.106
					c36.627,0,66.762,28.272,69.59,64.256C2301.692,1839.626,2301.756,1841.489,2301.756,1843.417z"/>
			</g>
			<g opacity="0.55">
				<path fill="#FFFFFF" d="M1507.744,1955.544h-38.939c-38.554,0-69.847-31.293-69.847-69.847v-42.28
					c0-38.618,31.293-69.91,69.847-69.91h38.939c-38.554,0-69.847,31.292-69.847,69.91v42.28
					C1437.897,1924.251,1469.19,1955.544,1507.744,1955.544z"/>
			</g>
			<g>
				<path fill="#C3512C" d="M2301.756,2078.724v32.128c0,30.137-24.48,54.617-54.617,54.617h-793.563
					c-30.137,0-54.619-24.48-54.619-54.617v-32.128c0-30.136,24.482-54.618,54.619-54.618h793.563
					C2277.276,2024.105,2301.756,2048.588,2301.756,2078.724z"/>
			</g>
			<g opacity="0.3">
				<path fill="#5E2323" d="M2301.756,2078.724v32.128c0,30.137-24.48,54.617-54.617,54.617h-133.332
					c8.676,0,16.836-1.991,24.096-5.59l-73.957-1.606l-10.152,7.196h-128l-136.352-74.794
					c-17.799-9.767-37.717-14.843-58.023-14.843h-12.08c-18.441,0-36.625-4.948-52.561-14.266l-51.148-29.943h525.873
					c-8.098-4.754-17.607-7.518-27.695-7.518h133.332C2277.276,2024.105,2301.756,2048.588,2301.756,2078.724z"/>
			</g>
			<g opacity="0.55">
				<path fill="#FFFFFF" d="M1492.515,2165.469h-38.938c-30.137,0-54.619-24.48-54.619-54.617v-32.128
					c0-30.136,24.482-54.618,54.619-54.618h38.938c-30.136,0-54.618,24.482-54.618,54.618v32.128
					C1437.897,2140.988,1462.379,2165.469,1492.515,2165.469z"/>
			</g>
			<g>
				<path fill="#5E2323" d="M2231.879,1971.631h-763.042c-47.388,0-85.942-38.555-85.942-85.942v-42.303
					c0-47.39,38.555-85.944,85.942-85.944h763.042c47.389,0,85.943,38.555,85.943,85.944v42.303
					C2317.823,1933.076,2279.268,1971.631,2231.879,1971.631z M1468.838,1789.57c-29.673,0-53.813,24.141-53.813,53.815v42.303
					c0,29.673,24.141,53.813,53.813,53.813h763.042c29.674,0,53.814-24.141,53.814-53.813v-42.303
					c0-29.675-24.141-53.815-53.814-53.815H1468.838z"/>
			</g>
			<g>
				<path fill="#8CC34B" d="M2183.719,1808.269c-11.375-3.598-23.904,1.992-31.809,10.924
					c-15.293,17.285-32.256,21.333-50.955,12.337c-6.297-5.012-12.594-9.51-18.826-13.429
					c-25.445-15.937-57.701-16.707-84.305-2.827c-20.367,10.537-42.986,11.63-66.955,6.682c0,0-0.063,0-0.127,0
					c-5.334-1.092-10.732-2.506-16.129-4.112c-72.996-23.582-134.424-20.24-180.689,18.506
					c-26.795,20.177-53.846,21.333-81.154,3.984c-14.973-9.96-30.586-18.635-46.973-25.51c-17.348-7.261-36.56-8.161-54.681-3.213
					c-119.13,32.578-211.596-9.188-113.026-98.184l597.583,6.876l232.928,2.698
					C2345.129,1798.116,2279.782,1838.855,2183.719,1808.269z"/>
			</g>
			<g opacity="0.55">
				<path fill="#FFFFFF" d="M2001.618,1813.409c-1.287,0.579-2.57,1.221-3.793,1.864c-24.865,12.915-53.139,11.63-83.211,2.569
					c-72.996-23.582-134.424-20.24-180.689,18.506c-26.795,20.177-53.846,21.333-81.154,3.984
					c-14.973-9.96-30.586-18.635-46.973-25.51c-17.348-7.261-36.56-8.161-54.681-3.213c-114.761,31.356-204.72-6.233-123.179-88.545
					c-42.858,65.284,40.16,92.593,143.034,64.449c18.12-4.948,37.333-4.049,54.681,3.212c16.387,6.876,32,15.551,46.973,25.51
					c27.309,17.35,54.359,16.193,81.154-3.983c46.266-38.746,107.693-42.088,180.689-18.506
					C1956.25,1800.301,1980.475,1812.253,2001.618,1813.409z"/>
			</g>
			<g>
				<path fill="#5E2323" d="M2247.139,2181.533h-793.565c-38.97,0-70.679-31.707-70.679-70.682v-32.129
					c0-38.975,31.709-70.681,70.679-70.681h793.565c38.975,0,70.684,31.706,70.684,70.681v32.129
					C2317.823,2149.826,2286.114,2181.533,2247.139,2181.533z M1453.574,2040.171c-21.255,0-38.55,17.295-38.55,38.552v32.129
					c0,21.258,17.295,38.553,38.55,38.553h793.565c21.26,0,38.555-17.295,38.555-38.553v-32.129
					c0-21.257-17.295-38.552-38.555-38.552H1453.574z"/>
			</g>
			<g>
				<path fill="#5E2323" d="M1690.723,1868.511c-15.553,0-31.191-4.863-46.559-14.609c-15.381-10.225-29.873-18.099-44.594-24.263
					c-13.619-5.701-29.312-6.597-44.195-2.524c-80.967,22.134-148.906,12.236-169.072-24.632
					c-10.684-19.523-12.231-52.891,41.03-100.977c6.587-5.949,16.738-5.427,22.69,1.16c5.948,6.584,5.425,16.743-1.157,22.688
					c-28.564,25.781-41.411,48.851-34.38,61.709c10.361,18.934,63.931,27.786,132.412,9.061c21.763-5.952,44.878-4.578,65.078,3.879
					c16.627,6.963,32.877,15.781,49.688,26.958c21.279,13.496,41.162,12.529,62.252-3.239
					c48.516-40.315,114.336-47.441,195.639-21.16c28.848,8.665,52.129,8.188,70.84-1.558c31.885-16.616,70.299-15.285,100.234,3.47
					c6.035,3.779,12.35,8.229,18.789,13.249c8.512,3.772,18.125,4.761,30.439-9.165c13.047-14.741,32.154-20.856,48.736-15.591
					c48.906,15.56,86.996,10.115,95.58-4.121c6.559-10.876-3.721-31.726-26.816-54.414c-6.328-6.218-6.416-16.389-0.199-22.717
					c6.221-6.323,16.391-6.416,22.719-0.203c48.316,47.469,40.674,79.214,31.816,93.914c-18.555,30.803-70.703,37.93-132.842,18.156
					c-4.248-1.345-10.527,1.287-14.932,6.265c-19.965,22.563-44.799,28.294-69.961,16.116c-1.055-0.511-2.045-1.133-2.963-1.858
					c-6.045-4.777-11.904-8.95-17.418-12.404c-20.326-12.732-46.508-13.572-68.34-2.205c-26.494,13.812-57.656,15.032-95.248,3.738
					c-71.602-23.14-125.729-18.06-165.801,15.415c-0.205,0.173-0.416,0.339-0.625,0.5
					C1726.456,1862.046,1708.647,1868.511,1690.723,1868.511z"/>
			</g>
			<g>
				<path fill="#F6B041" d="M2224.008,1730.712c-1.029,0.063-2.057,0.063-3.086,0.063h-741.13c-38.875,0-67.276-37.14-56.609-74.537
					c50.698-177.668,222.71-308.43,427.175-308.43c64.898,0,126.52,13.173,181.973,36.819
					c119.453,50.891,210.568,150.295,245.201,271.61C2287.942,1692.607,2261.276,1728.784,2224.008,1730.712z"/>
			</g>
			<g opacity="0.55">
				<path fill="#FFFFFF" d="M2043.897,1389.768c-49.092-17.798-102.424-27.501-158.199-27.501
					c-204.463,0-376.477,130.762-427.174,308.43c-6.554,22.939,1.606,45.751,17.863,60.016
					c-37.139-2.12-63.549-38.169-53.204-74.474c50.698-177.668,222.71-308.43,427.175-308.43
					C1919.754,1347.809,1985.489,1362.909,2043.897,1389.768z"/>
			</g>
			<g>
				<path fill="#5E2323" d="M2220.948,1746.853h-741.177c-23.715,0-45.518-10.866-59.814-29.814
					c-14.209-18.825-18.657-42.59-12.207-65.2c53.774-188.459,235.781-320.08,442.607-320.08
					c206.832,0,388.838,131.621,442.613,320.08c6.449,22.61,2.002,46.375-12.207,65.2
					C2266.465,1735.986,2244.663,1746.853,2220.948,1746.853z M1850.356,1363.887c-192.553,0-361.855,122.033-411.708,296.765
					c-3.662,12.83-1.128,26.328,6.953,37.034c8.169,10.827,20.625,17.038,34.17,17.038h741.177c13.545,0,26-6.211,34.17-17.038
					c8.08-10.706,10.615-24.204,6.953-37.034C2212.217,1485.92,2042.911,1363.887,1850.356,1363.887z"/>
			</g>
			<g>
				<path fill="#E93B47" d="M2279.782,1987.672v4.306c0,17.735-14.393,32.128-32.129,32.128h-794.591
					c-17.734,0-32.128-14.393-32.128-32.128v-4.306c0-17.734,14.394-32.128,32.128-32.128h794.591
					C2265.389,1955.544,2279.782,1969.938,2279.782,1987.672z"/>
			</g>
			<g opacity="0.55">
				<rect x="1554.244" y="1962.527" fill="#FFFFFF" width="42.302" height="61.578"/>
			</g>
			<g opacity="0.55">
				<rect x="1620.797" y="1962.527" fill="#FFFFFF" width="21.15" height="61.578"/>
			</g>
			<g opacity="0.55">
				<rect x="2043.897" y="1962.527" fill="#FFFFFF" width="42.303" height="61.578"/>
			</g>
			<g opacity="0.55">
				<rect x="2110.45" y="1962.527" fill="#FFFFFF" width="21.152" height="61.578"/>
			</g>
			<g opacity="0.3">
				<path fill="#5E2323" d="M2183.719,1808.269c-11.375-3.598-23.904,1.992-31.809,10.924
					c-15.293,17.285-32.256,21.333-50.955,12.337c-6.297-5.012-12.594-9.51-18.826-13.429
					c-25.445-15.937-57.701-16.707-84.305-2.827c-20.367,10.537-42.986,11.63-66.955,6.682
					c56.096,5.655,85.975-22.297,84.111-91.243l20.691-10.409l232.928,2.698C2345.129,1798.116,2279.782,1838.855,2183.719,1808.269
					z"/>
			</g>
			<g opacity="0.3">
				<path fill="#5E2323" d="M1875.905,1987.672v4.306c0,17.735,14.395,32.128,32.129,32.128h79.229
					c-17.734,0-32.129-14.393-32.129-32.128v-4.306c0-17.734,14.395-32.128,32.129-32.128h-79.229
					C1890.299,1955.544,1875.905,1969.938,1875.905,1987.672z"/>
			</g>
			<g opacity="0.55">
				<path fill="#FFFFFF" d="M1488.402,2024.105h-35.341c-17.734,0-32.128-14.393-32.128-32.128v-4.306
					c0-17.734,14.394-32.128,32.128-32.128h35.341c-17.734,0-32.128,14.394-32.128,32.128v4.306
					C1456.274,2009.713,1470.668,2024.105,1488.402,2024.105z"/>
			</g>
			<g>
				<path fill="#5E2323" d="M2247.657,2036.958h-794.595c-24.8,0-44.98-20.179-44.98-44.98v-4.305
					c0-24.802,20.181-44.98,44.98-44.98h794.595c24.799,0,44.975,20.179,44.975,44.98v4.305
					C2292.631,2016.779,2272.456,2036.958,2247.657,2036.958z M1453.062,1968.396c-10.63,0-19.277,8.647-19.277,19.277v4.305
					c0,10.63,8.647,19.277,19.277,19.277h794.595c10.625,0,19.271-8.647,19.271-19.277v-4.305c0-10.63-8.646-19.277-19.271-19.277
					H1453.062z"/>
			</g>
			<g>
				<path fill="#5E2323" d="M1853.569,2036.958h-400.507c-24.8,0-44.98-20.179-44.98-44.98v-4.305
					c0-24.802,20.181-44.98,44.98-44.98h400.507c24.801,0,44.98,20.179,44.98,44.98v4.305
					C1898.549,2016.779,1878.37,2036.958,1853.569,2036.958z M1453.062,1968.396c-10.63,0-19.277,8.647-19.277,19.277v4.305
					c0,10.63,8.647,19.277,19.277,19.277h400.507c10.631,0,19.277-8.647,19.277-19.277v-4.305c0-10.63-8.646-19.277-19.277-19.277
					H1453.062z"/>
			</g>
			<g opacity="0.3">
				<path fill="#5E2323" d="M1885.698,1987.672v4.306c0,17.735-14.393,32.128-32.127,32.128h-79.229
					c17.734,0,32.127-14.393,32.127-32.128v-4.306c0-17.734-14.393-32.128-32.127-32.128h79.229
					C1871.305,1955.544,1885.698,1969.938,1885.698,1987.672z"/>
			</g>
			<g opacity="0.3">
				<path fill="#5E2323" d="M2279.803,1987.672v4.306c0,17.735-14.393,32.128-32.127,32.128h-79.229
					c17.734,0,32.127-14.393,32.127-32.128v-4.306c0-17.734-14.393-32.128-32.127-32.128h79.229
					C2265.411,1955.544,2279.803,1969.938,2279.803,1987.672z"/>
			</g>
			<g>
				<path fill="#FEC828" d="M2204.538,2024.105v18.249c0,7.196-2.893,13.622-7.582,18.377c-4.691,4.69-11.182,7.583-18.313,7.583
					c-26.152,0-51.662,8.096-72.996,23.26l-104.029,73.895l-1.93,1.35c-26.473,18.828-61.363,20.883-89.83,5.205l-11.951-6.555
					l-150.039-82.312c-17.797-9.767-37.717-14.843-58.021-14.843h-12.08c-18.441,0-36.627-4.948-52.563-14.266l-51.148-29.943
					H2204.538z"/>
			</g>
			<g opacity="0.55">
				<path fill="#FFFFFF" d="M2007.143,2161.55l-5.525,3.919l-1.93,1.35c-26.473,18.828-61.363,20.883-89.83,5.205l-11.951-6.555
					l-150.039-82.312c-17.797-9.767-37.717-14.843-58.021-14.843h-12.08c-18.441,0-36.627-4.948-52.563-14.266l-51.148-29.943
					h60.144l22.039,12.916c15.936,9.316,34.121,14.265,52.563,14.265h12.08c20.305,0,40.225,5.076,58.023,14.843l150.037,82.313
					l11.953,6.555C1961.52,2166.369,1985.489,2168.425,2007.143,2161.55z"/>
			</g>
			<g>
				<path fill="#5E2323" d="M1950.551,2195.264c-16.146,0-32.328-3.96-46.895-11.982l-161.967-88.857
					c-15.811-8.672-33.74-13.257-51.846-13.257h-12.08c-20.703,0-41.119-5.542-59.049-16.023l-51.152-29.946
					c-5.005-2.932-7.427-8.854-5.908-14.455c1.519-5.599,6.602-9.487,12.402-9.487h630.478c7.1,0,12.852,5.754,12.852,12.852v18.247
					c0,10.29-4.004,20.021-11.279,27.399c-7.383,7.386-17.115,11.414-27.465,11.414c-23.662,0-46.328,7.222-65.547,20.881
					l-106.041,75.298C1990.352,2189.229,1970.479,2195.264,1950.551,2195.264z M1621.446,2036.958l10.254,6.001
					c13.984,8.181,29.916,12.505,46.064,12.505h12.08c22.416,0,44.619,5.681,64.209,16.426l161.986,88.867
					c23.961,13.195,53.873,11.467,76.197-4.409l2.012-1.406l103.959-73.843c23.59-16.771,51.406-25.635,80.436-25.635
					c3.486,0,6.762-1.357,9.229-3.821c1.703-1.729,3.813-4.81,3.813-9.289v-5.396H1621.446z"/>
			</g>
			<g>
				
					<ellipse transform="matrix(0.9993 -0.0373 0.0373 0.9993 -53.9196 70.7725)" fill="#FFFFFF" cx="1869.212" cy="1480.027" rx="5.915" ry="20.157"/>
			</g>
			<g>
				
					<ellipse transform="matrix(0.3701 0.929 -0.929 0.3701 2431.4355 -684.7424)" fill="#FFFFFF" cx="1720.661" cy="1450.619" rx="5.916" ry="20.155"/>
			</g>
			<g>
				
					<ellipse transform="matrix(0.5591 -0.8291 0.8291 0.5591 -324.0159 2301.8213)" fill="#FFFFFF" cx="2002.404" cy="1455.584" rx="5.915" ry="20.157"/>
			</g>
			<g>
				
					<ellipse transform="matrix(0.8959 -0.4442 0.4442 0.8959 -462.8508 1020.8928)" fill="#FFFFFF" cx="1947.4" cy="1498.279" rx="5.915" ry="20.156"/>
			</g>
			<g>
				
					<ellipse transform="matrix(0.9024 0.4308 -0.4308 0.9024 813.2079 -621.5632)" fill="#FFFFFF" cx="1778.933" cy="1484.674" rx="5.916" ry="20.156"/>
			</g>
			<g opacity="0.3">
				<path fill="#5E2323" d="M2224.008,1730.712H1790.92c371.08,17.092,382.859-275.128,241.283-346.084c0,0,0.063,0,0.127,0
					c119.453,50.891,210.568,150.295,245.201,271.61C2287.942,1692.607,2261.276,1728.784,2224.008,1730.712z"/>
			</g>
			<g opacity="0.3">
				<path fill="#5E2323" d="M2183.719,2250.801c-11.76-1.799-23.904,1.992-31.809,10.924
					c-15.293,17.221-32.256,21.334-50.955,12.273c-6.297-5.012-12.594-9.51-18.826-13.43c-9.768-6.104-20.563-9.959-31.678-11.631
					c39.131-11.244,60.465-36.176,52.947-83.083l0.898-0.321l164.303-0.064C2276.569,2247.074,2232.36,2258.063,2183.719,2250.801z"
					/>
			</g>
			<g opacity="0.3">
				<circle fill="#5E2323" cx="1623.929" cy="1630.612" r="14.458"/>
			</g>
			<g opacity="0.3">
				<circle fill="#5E2323" cx="2001.959" cy="1584.314" r="14.457"/>
			</g>
			<g opacity="0.3">
				<circle fill="#5E2323" cx="1672.461" cy="1585.235" r="7.195"/>
			</g>
			<g opacity="0.3">
				<circle fill="#5E2323" cx="1982.079" cy="1636.489" r="7.195"/>
			</g>
			<g opacity="0.3">
				<circle fill="#5E2323" cx="1680.35" cy="1630.612" r="9.672"/>
			</g>
			<g opacity="0.3">
				<circle fill="#5E2323" cx="1937.034" cy="1631.307" r="9.672"/>
			</g>
		</g>
	</g>
</g>
</svg>
